<svg width="28" height="28" viewBox="0 0 28 28" fill="none" xmlns="http://www.w3.org/2000/svg">
<circle cx="14" cy="14" r="14" fill="white"/>
<path d="M14.0672 25.1344C21.4467 25.1344 25.1344 20.1794 25.1344 14.0672C25.1344 7.95494 21.4467 3 14.0672 3C6.68758 3 3 7.95494 3 14.0672C3 20.1794 6.68758 25.1344 14.0672 25.1344Z" fill="#00D26A"/>
<path d="M9.71988 16.4398C11.6847 16.4398 13.2775 14.847 13.2775 12.8822C13.2775 10.9174 11.6847 9.3246 9.71988 9.3246C7.75508 9.3246 6.16229 10.9174 6.16229 12.8822C6.16229 14.847 7.75508 16.4398 9.71988 16.4398Z" fill="white"/>
<path d="M18.4162 16.4398C20.381 16.4398 21.9738 14.847 21.9738 12.8822C21.9738 10.9174 20.381 9.3246 18.4162 9.3246C16.4514 9.3246 14.8586 10.9174 14.8586 12.8822C14.8586 14.847 16.4514 16.4398 18.4162 16.4398Z" fill="white"/>
<path d="M10.1056 5.85327C10.1533 5.64023 10.0192 5.42889 9.80613 5.38124C9.59307 5.33359 9.38175 5.46768 9.33416 5.68073C9.14625 6.52076 8.70055 7.0241 8.19003 7.32623C7.66731 7.63559 7.05805 7.74344 6.55758 7.74344C6.33927 7.74344 6.16229 7.92041 6.16229 8.13873C6.16229 8.35704 6.33927 8.53402 6.55758 8.53402C7.15632 8.53402 7.91544 8.40739 8.59269 8.00658C9.28212 7.59855 9.86795 6.91603 10.1056 5.85327Z" fill="#402A32"/>
<path d="M18.0305 5.85327C17.9828 5.64023 18.1169 5.42889 18.33 5.38124C18.543 5.33359 18.7543 5.46768 18.8019 5.68073C18.9898 6.52076 19.4356 7.0241 19.946 7.32623C20.4688 7.63559 21.078 7.74344 21.5785 7.74344C21.7968 7.74344 21.9738 7.92041 21.9738 8.13873C21.9738 8.35704 21.7968 8.53402 21.5785 8.53402C20.9798 8.53402 20.2206 8.40739 19.5434 8.00658C18.8539 7.59855 18.2681 6.91603 18.0305 5.85327Z" fill="#402A32"/>
<path d="M12.4104 18.0246C12.4356 18.0221 12.4611 18.0209 12.4869 18.0209H15.6492C15.675 18.0209 15.7005 18.0221 15.7257 18.0246C15.8847 17.2506 16.2805 16.6726 16.8076 16.2801C17.4612 15.7932 18.2372 15.6492 18.8115 15.6492C19.2481 15.6492 19.6021 16.0031 19.6021 16.4398C19.6021 16.8764 19.2481 17.2304 18.8115 17.2304C18.4634 17.2304 18.0536 17.3235 17.752 17.5482C17.4891 17.7439 17.2304 18.094 17.2304 18.8115C17.2304 19.529 17.4891 19.879 17.752 20.0748C18.0536 20.2994 18.4634 20.3926 18.8115 20.3926C19.2481 20.3926 19.6021 20.7466 19.6021 21.1832C19.6021 21.6199 19.2481 21.9738 18.8115 21.9738C18.2372 21.9738 17.4612 21.8298 16.8076 21.3429C16.2805 20.9504 15.8847 20.3724 15.7257 19.5984C15.7005 19.6008 15.675 19.6021 15.6492 19.6021H12.4869C12.4611 19.6021 12.4356 19.6008 12.4104 19.5984C12.2514 20.3724 11.8556 20.9504 11.3286 21.3429C10.6749 21.8298 9.89888 21.9738 9.3246 21.9738C8.88798 21.9738 8.53403 21.6199 8.53403 21.1832C8.53403 20.7466 8.88798 20.3926 9.3246 20.3926C9.67269 20.3926 10.0825 20.2994 10.3841 20.0748C10.647 19.879 10.9058 19.529 10.9058 18.8115C10.9058 18.094 10.647 17.7439 10.3841 17.5482C10.0825 17.3235 9.67269 17.2304 9.3246 17.2304C8.88798 17.2304 8.53403 16.8764 8.53403 16.4398C8.53403 16.0031 8.88798 15.6492 9.3246 15.6492C9.89888 15.6492 10.6749 15.7932 11.3286 16.2801C11.8556 16.6726 12.2514 17.2506 12.4104 18.0246Z" fill="#402A32"/>
<path d="M12.4869 13.2775C12.4869 14.1507 11.779 14.8586 10.9057 14.8586C10.0325 14.8586 9.32458 14.1507 9.32458 13.2775C9.32458 12.4042 10.0325 11.6963 10.9057 11.6963C11.779 11.6963 12.4869 12.4042 12.4869 13.2775Z" fill="#402A32"/>
<path d="M18.8115 13.2775C18.8115 14.1507 18.1036 14.8586 17.2304 14.8586C16.3571 14.8586 15.6492 14.1507 15.6492 13.2775C15.6492 12.4042 16.3571 11.6963 17.2304 11.6963C18.1036 11.6963 18.8115 12.4042 18.8115 13.2775Z" fill="#402A32"/>
</svg>
