<svg width="320" height="320" viewBox="0 0 320 320" fill="none" xmlns="http://www.w3.org/2000/svg">
<g clip-path="url(#clip0_1187_10879)">
<rect x="16" y="77" width="210.314" height="58.9714" rx="12" fill="#DAE4F7"/>
<path d="M38.1045 116.986V96.3458H42.0556L50.8424 110.912H48.7489L57.3882 96.3458H61.3098L61.3688 116.986H56.8869L56.8575 103.216H57.6831L50.7834 114.804H48.6309L41.5839 103.216H42.5864V116.986H38.1045ZM73.4897 117.222C71.7992 117.222 70.2954 116.868 68.9784 116.16C67.681 115.453 66.649 114.489 65.8824 113.271C65.1354 112.032 64.7619 110.627 64.7619 109.054C64.7619 107.462 65.1354 106.056 65.8824 104.838C66.649 103.599 67.681 102.636 68.9784 101.948C70.2954 101.24 71.7992 100.887 73.4897 100.887C75.1606 100.887 76.6545 101.24 77.9715 101.948C79.2886 102.636 80.3206 103.589 81.0675 104.808C81.8145 106.027 82.188 107.442 82.188 109.054C82.188 110.627 81.8145 112.032 81.0675 113.271C80.3206 114.489 79.2886 115.453 77.9715 116.16C76.6545 116.868 75.1606 117.222 73.4897 117.222ZM73.4897 113.448C74.2563 113.448 74.9443 113.271 75.5537 112.917C76.1631 112.563 76.6447 112.062 76.9985 111.413C77.3523 110.745 77.5292 109.958 77.5292 109.054C77.5292 108.13 77.3523 107.344 76.9985 106.695C76.6447 106.047 76.1631 105.545 75.5537 105.192C74.9443 104.838 74.2563 104.661 73.4897 104.661C72.7231 104.661 72.0351 104.838 71.4257 105.192C70.8163 105.545 70.3249 106.047 69.9514 106.695C69.5976 107.344 69.4207 108.13 69.4207 109.054C69.4207 109.958 69.5976 110.745 69.9514 111.413C70.3249 112.062 70.8163 112.563 71.4257 112.917C72.0351 113.271 72.7231 113.448 73.4897 113.448ZM94.9044 100.887C96.1624 100.887 97.2829 101.142 98.2658 101.653C99.2683 102.145 100.055 102.911 100.625 103.953C101.195 104.975 101.48 106.292 101.48 107.904V116.986H96.8799V108.612C96.8799 107.334 96.5949 106.391 96.0248 105.781C95.4744 105.172 94.6882 104.867 93.666 104.867C92.9387 104.867 92.2802 105.024 91.6904 105.339C91.1204 105.634 90.6683 106.096 90.3341 106.725C90.0196 107.354 89.8623 108.16 89.8623 109.143V116.986H85.2626V101.123H89.6559V105.516L88.8303 104.189C89.4004 103.128 90.2162 102.312 91.2776 101.742C92.3391 101.172 93.548 100.887 94.9044 100.887ZM112.136 117.222C110.269 117.222 108.814 116.75 107.772 115.806C106.73 114.843 106.209 113.418 106.209 111.531V97.6137H110.809V111.472C110.809 112.14 110.986 112.661 111.34 113.035C111.694 113.389 112.175 113.565 112.785 113.565C113.512 113.565 114.131 113.369 114.642 112.976L115.881 116.219C115.409 116.553 114.839 116.809 114.171 116.986C113.522 117.143 112.844 117.222 112.136 117.222ZM103.762 105.015V101.476H114.76V105.015H103.762ZM123.8 117.222C122.443 117.222 121.136 117.064 119.878 116.75C118.64 116.416 117.657 116.003 116.93 115.512L118.463 112.209C119.19 112.661 120.045 113.035 121.028 113.33C122.031 113.605 123.013 113.742 123.977 113.742C125.038 113.742 125.785 113.615 126.218 113.359C126.67 113.104 126.896 112.75 126.896 112.298C126.896 111.924 126.719 111.649 126.365 111.472C126.031 111.275 125.579 111.128 125.009 111.03C124.439 110.931 123.81 110.833 123.122 110.735C122.453 110.637 121.775 110.509 121.087 110.352C120.399 110.175 119.77 109.919 119.2 109.585C118.63 109.251 118.168 108.799 117.814 108.229C117.48 107.659 117.313 106.921 117.313 106.017C117.313 105.015 117.598 104.13 118.168 103.363C118.758 102.597 119.603 101.997 120.704 101.565C121.804 101.113 123.122 100.887 124.655 100.887C125.736 100.887 126.837 101.005 127.957 101.24C129.078 101.476 130.011 101.82 130.758 102.272L129.225 105.545C128.458 105.093 127.682 104.789 126.896 104.631C126.129 104.454 125.382 104.366 124.655 104.366C123.633 104.366 122.886 104.504 122.414 104.779C121.942 105.054 121.706 105.408 121.706 105.84C121.706 106.233 121.873 106.528 122.207 106.725C122.561 106.921 123.023 107.079 123.593 107.197C124.163 107.315 124.783 107.423 125.451 107.521C126.139 107.6 126.827 107.727 127.515 107.904C128.203 108.081 128.822 108.337 129.372 108.671C129.943 108.985 130.404 109.428 130.758 109.998C131.112 110.548 131.289 111.275 131.289 112.18C131.289 113.163 130.994 114.037 130.404 114.804C129.815 115.551 128.96 116.141 127.839 116.573C126.738 117.005 125.392 117.222 123.8 117.222ZM142 117.222C140.191 117.222 138.599 116.868 137.223 116.16C135.867 115.453 134.815 114.489 134.068 113.271C133.321 112.032 132.948 110.627 132.948 109.054C132.948 107.462 133.311 106.056 134.039 104.838C134.786 103.599 135.798 102.636 137.076 101.948C138.353 101.24 139.798 100.887 141.41 100.887C142.963 100.887 144.359 101.221 145.597 101.889C146.855 102.538 147.848 103.481 148.575 104.72C149.302 105.939 149.666 107.403 149.666 109.113C149.666 109.29 149.656 109.496 149.637 109.732C149.617 109.949 149.597 110.155 149.578 110.352H136.692V107.668H147.16L145.391 108.464C145.391 107.639 145.224 106.921 144.889 106.312C144.555 105.703 144.093 105.231 143.504 104.897C142.914 104.543 142.226 104.366 141.44 104.366C140.653 104.366 139.955 104.543 139.346 104.897C138.756 105.231 138.294 105.712 137.96 106.341C137.626 106.951 137.459 107.678 137.459 108.523V109.231C137.459 110.096 137.646 110.863 138.019 111.531C138.412 112.18 138.953 112.681 139.641 113.035C140.349 113.369 141.174 113.536 142.118 113.536C142.963 113.536 143.7 113.408 144.329 113.153C144.978 112.897 145.568 112.514 146.098 112.003L148.546 114.656C147.818 115.482 146.904 116.121 145.803 116.573C144.703 117.005 143.435 117.222 142 117.222ZM152.728 116.986V101.123H157.122V105.604L156.503 104.307C156.974 103.187 157.731 102.341 158.773 101.771C159.815 101.181 161.083 100.887 162.577 100.887V105.133C162.38 105.113 162.203 105.103 162.046 105.103C161.889 105.083 161.722 105.074 161.545 105.074C160.287 105.074 159.264 105.437 158.478 106.165C157.711 106.872 157.328 107.983 157.328 109.496V116.986H152.728ZM165.34 116.986V101.123H169.734V105.604L169.115 104.307C169.586 103.187 170.343 102.341 171.385 101.771C172.427 101.181 173.695 100.887 175.189 100.887V105.133C174.992 105.113 174.815 105.103 174.658 105.103C174.501 105.083 174.334 105.074 174.157 105.074C172.899 105.074 171.876 105.437 171.09 106.165C170.324 106.872 169.94 107.983 169.94 109.496V116.986H165.34ZM186.617 116.986V113.89L186.323 113.212V107.668C186.323 106.685 186.018 105.919 185.408 105.368C184.819 104.818 183.905 104.543 182.666 104.543C181.821 104.543 180.986 104.68 180.16 104.956C179.354 105.211 178.666 105.565 178.096 106.017L176.445 102.803C177.31 102.194 178.352 101.722 179.57 101.388C180.789 101.054 182.027 100.887 183.286 100.887C185.703 100.887 187.581 101.457 188.917 102.597C190.254 103.737 190.922 105.516 190.922 107.934V116.986H186.617ZM181.782 117.222C180.543 117.222 179.482 117.015 178.597 116.603C177.713 116.17 177.035 115.59 176.563 114.863C176.091 114.136 175.855 113.32 175.855 112.416C175.855 111.472 176.081 110.646 176.533 109.939C177.005 109.231 177.742 108.681 178.745 108.288C179.747 107.875 181.054 107.668 182.666 107.668H186.883V110.352H183.168C182.086 110.352 181.339 110.528 180.927 110.882C180.534 111.236 180.337 111.678 180.337 112.209C180.337 112.799 180.563 113.271 181.015 113.624C181.487 113.959 182.126 114.126 182.932 114.126C183.698 114.126 184.386 113.949 184.996 113.595C185.605 113.221 186.047 112.681 186.323 111.973L187.03 114.096C186.696 115.118 186.087 115.895 185.202 116.426C184.318 116.956 183.177 117.222 181.782 117.222ZM201.572 117.222C199.705 117.222 198.25 116.75 197.208 115.806C196.166 114.843 195.646 113.418 195.646 111.531V97.6137H200.245V111.472C200.245 112.14 200.422 112.661 200.776 113.035C201.13 113.389 201.611 113.565 202.221 113.565C202.948 113.565 203.567 113.369 204.078 112.976L205.317 116.219C204.845 116.553 204.275 116.809 203.607 116.986C202.958 117.143 202.28 117.222 201.572 117.222ZM193.198 105.015V101.476H204.196V105.015H193.198Z" fill="#050B15"/>
<rect x="234.3" y="77.6143" width="203.086" height="57.7429" rx="11.3857" stroke="#CEDBF5" stroke-width="1.22857"/>
<path d="M271.843 109.79L272.88 107.832V118.486H271.843V109.79ZM273.917 105.816L274.953 103.858V118.486H273.917V105.816ZM275.99 101.9L277.026 99.9277V118.486H275.99V101.9ZM269.036 109.3L268.446 108.221L275.587 94.6439H276.753L269.036 109.3ZM267.841 107.04L267.236 105.946L273.225 94.6439H274.406L267.841 107.04ZM260.901 107.947L261.938 109.905V118.486H260.901V107.947ZM258.828 104.002L259.865 105.96V118.486H258.828V104.002ZM256.755 100.057L257.792 102.03V118.486H256.755V100.057ZM265.134 112.266H263.968L255.718 96.6163V118.486H254.682V94.6439H255.848L265.134 112.266ZM267.481 112.266H266.3L257.028 94.6439H258.209L267.481 112.266ZM278.063 96.6163L269.813 112.266H268.633L259.375 94.6439H260.541L269.237 111.172L277.919 94.6439H279.1V118.486H278.063V96.6163ZM289.754 105.197C288.947 106.003 288.544 106.978 288.544 108.12C288.544 109.262 288.947 110.241 289.754 111.057C290.569 111.863 291.548 112.266 292.691 112.266C293.833 112.266 294.807 111.863 295.613 111.057C296.429 110.241 296.837 109.262 296.837 108.12C296.837 106.978 296.429 106.003 295.613 105.197C294.807 104.381 293.833 103.973 292.691 103.973C291.548 103.973 290.569 104.381 289.754 105.197ZM289.019 111.791C288.012 110.774 287.508 109.55 287.508 108.12C287.508 106.69 288.012 105.471 289.019 104.463C290.037 103.445 291.261 102.937 292.691 102.937C294.121 102.937 295.34 103.445 296.348 104.463C297.365 105.471 297.874 106.69 297.874 108.12C297.874 109.55 297.365 110.774 296.348 111.791C295.34 112.799 294.121 113.303 292.691 113.303C291.261 113.303 290.037 112.799 289.019 111.791ZM288.285 103.729C287.076 104.948 286.471 106.411 286.471 108.12C286.471 109.828 287.076 111.292 288.285 112.511C289.504 113.73 290.973 114.339 292.691 114.339C294.409 114.339 295.872 113.73 297.082 112.511C298.301 111.292 298.91 109.828 298.91 108.12C298.91 106.411 298.301 104.948 297.082 103.729C295.872 102.51 294.409 101.9 292.691 101.9C290.973 101.9 289.504 102.51 288.285 103.729ZM286.399 111.762C285.756 110.649 285.434 109.435 285.434 108.12C285.434 106.805 285.756 105.591 286.399 104.477C287.052 103.364 287.935 102.486 289.048 101.843C290.162 101.19 291.376 100.864 292.691 100.864C294.006 100.864 295.22 101.19 296.333 101.843C297.447 102.486 298.325 103.364 298.968 104.477C299.621 105.591 299.947 106.805 299.947 108.12C299.947 109.435 299.621 110.649 298.968 111.762C298.325 112.876 297.447 113.759 296.333 114.411C295.22 115.054 294.006 115.376 292.691 115.376C291.376 115.376 290.162 115.054 289.048 114.411C287.935 113.759 287.052 112.876 286.399 111.762ZM285.046 104.909C284.614 105.927 284.398 106.997 284.398 108.12C284.398 109.243 284.614 110.318 285.046 111.345C285.487 112.362 286.077 113.245 286.817 113.994C287.565 114.733 288.448 115.323 289.466 115.765C290.493 116.197 291.568 116.413 292.691 116.413C293.814 116.413 294.884 116.197 295.901 115.765C296.928 115.323 297.811 114.733 298.55 113.994C299.299 113.245 299.889 112.362 300.321 111.345C300.763 110.318 300.984 109.243 300.984 108.12C300.984 106.997 300.763 105.927 300.321 104.909C299.889 103.882 299.299 102.999 298.55 102.26C297.811 101.511 296.928 100.921 295.901 100.489C294.884 100.048 293.814 99.8269 292.691 99.8269C291.568 99.8269 290.493 100.048 289.466 100.489C288.448 100.921 287.565 101.511 286.817 102.26C286.077 102.999 285.487 103.882 285.046 104.909ZM284.095 111.748C283.606 110.596 283.361 109.387 283.361 108.12C283.361 106.853 283.606 105.643 284.095 104.492C284.595 103.34 285.257 102.351 286.082 101.526C286.917 100.691 287.911 100.028 289.063 99.539C290.214 99.0399 291.424 98.7903 292.691 98.7903C293.958 98.7903 295.167 99.0399 296.319 99.539C297.471 100.028 298.459 100.691 299.285 101.526C300.12 102.351 300.782 103.34 301.271 104.492C301.771 105.643 302.02 106.853 302.02 108.12C302.02 109.387 301.771 110.596 301.271 111.748C300.782 112.9 300.12 113.893 299.285 114.728C298.459 115.554 297.471 116.216 296.319 116.715C295.167 117.204 293.958 117.449 292.691 117.449C291.424 117.449 290.214 117.204 289.063 116.715C287.911 116.216 286.917 115.554 286.082 114.728C285.257 113.893 284.595 112.9 284.095 111.748ZM283.145 104.103C282.598 105.379 282.325 106.718 282.325 108.12C282.325 109.521 282.598 110.865 283.145 112.151C283.692 113.428 284.427 114.531 285.348 115.462C286.279 116.384 287.383 117.118 288.659 117.665C289.946 118.212 291.289 118.486 292.691 118.486C294.092 118.486 295.431 118.212 296.708 117.665C297.994 117.118 299.097 116.384 300.019 115.462C300.95 114.531 301.689 113.428 302.236 112.151C302.783 110.865 303.057 109.521 303.057 108.12C303.057 106.718 302.783 105.379 302.236 104.103C301.689 102.817 300.95 101.713 300.019 100.792C299.097 99.8605 297.994 99.1214 296.708 98.5743C295.431 98.0272 294.092 97.7537 292.691 97.7537C291.289 97.7537 289.946 98.0272 288.659 98.5743C287.383 99.1214 286.279 99.8605 285.348 100.792C284.427 101.713 283.692 102.817 283.145 104.103ZM282.195 112.554C281.59 111.143 281.288 109.665 281.288 108.12C281.288 106.574 281.59 105.101 282.195 103.7C282.8 102.289 283.611 101.075 284.628 100.057C285.646 99.0399 286.855 98.2288 288.256 97.6241C289.667 97.0194 291.145 96.7171 292.691 96.7171C294.236 96.7171 295.709 97.0194 297.111 97.6241C298.522 98.2288 299.736 99.0399 300.753 100.057C301.771 101.075 302.582 102.289 303.186 103.7C303.791 105.101 304.093 106.574 304.093 108.12C304.093 109.665 303.791 111.143 303.186 112.554C302.582 113.955 301.771 115.165 300.753 116.182C299.736 117.2 298.522 118.011 297.111 118.615C295.709 119.22 294.236 119.522 292.691 119.522C291.145 119.522 289.667 119.22 288.256 118.615C286.855 118.011 285.646 117.2 284.628 116.182C283.611 115.165 282.8 113.955 282.195 112.554ZM322.781 110.121L321.744 108.235V97.7537H322.781V110.121ZM324.854 113.706L323.818 111.949V97.7537H324.854V113.706ZM310.572 106.119L311.609 108.005V118.486H310.572V106.119ZM308.499 102.39L309.536 104.29V118.486H308.499V102.39ZM308.859 97.7537H310.068L322.076 118.486H320.866L308.859 97.7537ZM311.306 97.7537H312.53L324.523 118.486H323.285L311.306 97.7537ZM313.74 97.7537H314.949L325.891 116.686V97.7537H326.927V118.486H325.704L313.74 97.7537ZM307.462 99.539V118.486H306.426V97.7537H307.664L319.628 118.486H318.433L307.462 99.539ZM337.553 105.197C336.746 106.003 336.343 106.978 336.343 108.12C336.343 109.262 336.746 110.241 337.553 111.057C338.369 111.863 339.348 112.266 340.49 112.266C341.632 112.266 342.606 111.863 343.412 111.057C344.228 110.241 344.636 109.262 344.636 108.12C344.636 106.978 344.228 106.003 343.412 105.197C342.606 104.381 341.632 103.973 340.49 103.973C339.348 103.973 338.369 104.381 337.553 105.197ZM336.818 111.791C335.811 110.774 335.307 109.55 335.307 108.12C335.307 106.69 335.811 105.471 336.818 104.463C337.836 103.445 339.06 102.937 340.49 102.937C341.92 102.937 343.139 103.445 344.147 104.463C345.164 105.471 345.673 106.69 345.673 108.12C345.673 109.55 345.164 110.774 344.147 111.791C343.139 112.799 341.92 113.303 340.49 113.303C339.06 113.303 337.836 112.799 336.818 111.791ZM336.084 103.729C334.875 104.948 334.27 106.411 334.27 108.12C334.27 109.828 334.875 111.292 336.084 112.511C337.303 113.73 338.772 114.339 340.49 114.339C342.208 114.339 343.672 113.73 344.881 112.511C346.1 111.292 346.709 109.828 346.709 108.12C346.709 106.411 346.1 104.948 344.881 103.729C343.672 102.51 342.208 101.9 340.49 101.9C338.772 101.9 337.303 102.51 336.084 103.729ZM334.198 111.762C333.555 110.649 333.234 109.435 333.234 108.12C333.234 106.805 333.555 105.591 334.198 104.477C334.851 103.364 335.734 102.486 336.847 101.843C337.961 101.19 339.175 100.864 340.49 100.864C341.805 100.864 343.019 101.19 344.132 101.843C345.246 102.486 346.124 103.364 346.767 104.477C347.42 105.591 347.746 106.805 347.746 108.12C347.746 109.435 347.42 110.649 346.767 111.762C346.124 112.876 345.246 113.759 344.132 114.411C343.019 115.054 341.805 115.376 340.49 115.376C339.175 115.376 337.961 115.054 336.847 114.411C335.734 113.759 334.851 112.876 334.198 111.762ZM332.845 104.909C332.413 105.927 332.197 106.997 332.197 108.12C332.197 109.243 332.413 110.318 332.845 111.345C333.286 112.362 333.877 113.245 334.616 113.994C335.364 114.733 336.247 115.323 337.265 115.765C338.292 116.197 339.367 116.413 340.49 116.413C341.613 116.413 342.683 116.197 343.7 115.765C344.727 115.323 345.61 114.733 346.349 113.994C347.098 113.245 347.688 112.362 348.12 111.345C348.562 110.318 348.783 109.243 348.783 108.12C348.783 106.997 348.562 105.927 348.12 104.909C347.688 103.882 347.098 102.999 346.349 102.26C345.61 101.511 344.727 100.921 343.7 100.489C342.683 100.048 341.613 99.8269 340.49 99.8269C339.367 99.8269 338.292 100.048 337.265 100.489C336.247 100.921 335.364 101.511 334.616 102.26C333.877 102.999 333.286 103.882 332.845 104.909ZM331.895 111.748C331.405 110.596 331.16 109.387 331.16 108.12C331.16 106.853 331.405 105.643 331.895 104.492C332.394 103.34 333.056 102.351 333.881 101.526C334.716 100.691 335.71 100.028 336.862 99.539C338.013 99.0399 339.223 98.7903 340.49 98.7903C341.757 98.7903 342.966 99.0399 344.118 99.539C345.27 100.028 346.258 100.691 347.084 101.526C347.919 102.351 348.581 103.34 349.071 104.492C349.57 105.643 349.819 106.853 349.819 108.12C349.819 109.387 349.57 110.596 349.071 111.748C348.581 112.9 347.919 113.893 347.084 114.728C346.258 115.554 345.27 116.216 344.118 116.715C342.966 117.204 341.757 117.449 340.49 117.449C339.223 117.449 338.013 117.204 336.862 116.715C335.71 116.216 334.716 115.554 333.881 114.728C333.056 113.893 332.394 112.9 331.895 111.748ZM330.944 104.103C330.397 105.379 330.124 106.718 330.124 108.12C330.124 109.521 330.397 110.865 330.944 112.151C331.491 113.428 332.226 114.531 333.147 115.462C334.078 116.384 335.182 117.118 336.459 117.665C337.745 118.212 339.088 118.486 340.49 118.486C341.891 118.486 343.23 118.212 344.507 117.665C345.793 117.118 346.897 116.384 347.818 115.462C348.749 114.531 349.488 113.428 350.035 112.151C350.582 110.865 350.856 109.521 350.856 108.12C350.856 106.718 350.582 105.379 350.035 104.103C349.488 102.817 348.749 101.713 347.818 100.792C346.897 99.8605 345.793 99.1214 344.507 98.5743C343.23 98.0272 341.891 97.7537 340.49 97.7537C339.088 97.7537 337.745 98.0272 336.459 98.5743C335.182 99.1214 334.078 99.8605 333.147 100.792C332.226 101.713 331.491 102.817 330.944 104.103ZM329.994 112.554C329.389 111.143 329.087 109.665 329.087 108.12C329.087 106.574 329.389 105.101 329.994 103.7C330.599 102.289 331.41 101.075 332.427 100.057C333.445 99.0399 334.654 98.2288 336.055 97.6241C337.466 97.0194 338.944 96.7171 340.49 96.7171C342.035 96.7171 343.508 97.0194 344.91 97.6241C346.321 98.2288 347.535 99.0399 348.552 100.057C349.57 101.075 350.381 102.289 350.985 103.7C351.59 105.101 351.892 106.574 351.892 108.12C351.892 109.665 351.59 111.143 350.985 112.554C350.381 113.955 349.57 115.165 348.552 116.182C347.535 117.2 346.321 118.011 344.91 118.615C343.508 119.22 342.035 119.522 340.49 119.522C338.944 119.522 337.466 119.22 336.055 118.615C334.654 118.011 333.445 117.2 332.427 116.182C331.41 115.165 330.599 113.955 329.994 112.554ZM357.896 103.498H358.933V118.486H357.896V103.498ZM353.75 98.7903V97.7537H369.299V98.7903H353.75ZM353.75 100.864V99.8269H369.299V100.864H353.75ZM353.75 102.937V101.9H369.299V102.937H353.75ZM364.116 103.498H365.152V118.486H364.116V103.498ZM362.043 103.498H363.079V118.486H362.043V103.498ZM359.969 103.498H361.006V118.486H359.969V103.498ZM379.507 105.197C378.7 106.003 378.297 106.978 378.297 108.12C378.297 109.262 378.7 110.241 379.507 111.057C380.322 111.863 381.301 112.266 382.444 112.266C383.586 112.266 384.56 111.863 385.366 111.057C386.182 110.241 386.59 109.262 386.59 108.12C386.59 106.978 386.182 106.003 385.366 105.197C384.56 104.381 383.586 103.973 382.444 103.973C381.301 103.973 380.322 104.381 379.507 105.197ZM378.772 111.791C377.764 110.774 377.261 109.55 377.261 108.12C377.261 106.69 377.764 105.471 378.772 104.463C379.79 103.445 381.013 102.937 382.444 102.937C383.874 102.937 385.093 103.445 386.1 104.463C387.118 105.471 387.627 106.69 387.627 108.12C387.627 109.55 387.118 110.774 386.1 111.791C385.093 112.799 383.874 113.303 382.444 113.303C381.013 113.303 379.79 112.799 378.772 111.791ZM378.038 103.729C376.829 104.948 376.224 106.411 376.224 108.12C376.224 109.828 376.829 111.292 378.038 112.511C379.257 113.73 380.725 114.339 382.444 114.339C384.162 114.339 385.625 113.73 386.835 112.511C388.054 111.292 388.663 109.828 388.663 108.12C388.663 106.411 388.054 104.948 386.835 103.729C385.625 102.51 384.162 101.9 382.444 101.9C380.725 101.9 379.257 102.51 378.038 103.729ZM376.152 111.762C375.509 110.649 375.187 109.435 375.187 108.12C375.187 106.805 375.509 105.591 376.152 104.477C376.805 103.364 377.688 102.486 378.801 101.843C379.914 101.19 381.129 100.864 382.444 100.864C383.759 100.864 384.973 101.19 386.086 101.843C387.199 102.486 388.078 103.364 388.721 104.477C389.373 105.591 389.7 106.805 389.7 108.12C389.7 109.435 389.373 110.649 388.721 111.762C388.078 112.876 387.199 113.759 386.086 114.411C384.973 115.054 383.759 115.376 382.444 115.376C381.129 115.376 379.914 115.054 378.801 114.411C377.688 113.759 376.805 112.876 376.152 111.762ZM374.799 104.909C374.367 105.927 374.151 106.997 374.151 108.12C374.151 109.243 374.367 110.318 374.799 111.345C375.24 112.362 375.83 113.245 376.569 113.994C377.318 114.733 378.201 115.323 379.219 115.765C380.246 116.197 381.321 116.413 382.444 116.413C383.567 116.413 384.637 116.197 385.654 115.765C386.681 115.323 387.564 114.733 388.303 113.994C389.052 113.245 389.642 112.362 390.074 111.345C390.516 110.318 390.736 109.243 390.736 108.12C390.736 106.997 390.516 105.927 390.074 104.909C389.642 103.882 389.052 102.999 388.303 102.26C387.564 101.511 386.681 100.921 385.654 100.489C384.637 100.048 383.567 99.8269 382.444 99.8269C381.321 99.8269 380.246 100.048 379.219 100.489C378.201 100.921 377.318 101.511 376.569 102.26C375.83 102.999 375.24 103.882 374.799 104.909ZM373.848 111.748C373.359 110.596 373.114 109.387 373.114 108.12C373.114 106.853 373.359 105.643 373.848 104.492C374.347 103.34 375.01 102.351 375.835 101.526C376.67 100.691 377.664 100.028 378.815 99.539C379.967 99.0399 381.177 98.7903 382.444 98.7903C383.711 98.7903 384.92 99.0399 386.072 99.539C387.223 100.028 388.212 100.691 389.038 101.526C389.873 102.351 390.535 103.34 391.024 104.492C391.523 105.643 391.773 106.853 391.773 108.12C391.773 109.387 391.523 110.596 391.024 111.748C390.535 112.9 389.873 113.893 389.038 114.728C388.212 115.554 387.223 116.216 386.072 116.715C384.92 117.204 383.711 117.449 382.444 117.449C381.177 117.449 379.967 117.204 378.815 116.715C377.664 116.216 376.67 115.554 375.835 114.728C375.01 113.893 374.347 112.9 373.848 111.748ZM372.898 104.103C372.351 105.379 372.077 106.718 372.077 108.12C372.077 109.521 372.351 110.865 372.898 112.151C373.445 113.428 374.179 114.531 375.101 115.462C376.032 116.384 377.136 117.118 378.412 117.665C379.698 118.212 381.042 118.486 382.444 118.486C383.845 118.486 385.184 118.212 386.46 117.665C387.747 117.118 388.85 116.384 389.772 115.462C390.703 114.531 391.442 113.428 391.989 112.151C392.536 110.865 392.81 109.521 392.81 108.12C392.81 106.718 392.536 105.379 391.989 104.103C391.442 102.817 390.703 101.713 389.772 100.792C388.85 99.8605 387.747 99.1214 386.46 98.5743C385.184 98.0272 383.845 97.7537 382.444 97.7537C381.042 97.7537 379.698 98.0272 378.412 98.5743C377.136 99.1214 376.032 99.8605 375.101 100.792C374.179 101.713 373.445 102.817 372.898 104.103ZM371.948 112.554C371.343 111.143 371.041 109.665 371.041 108.12C371.041 106.574 371.343 105.101 371.948 103.7C372.553 102.289 373.364 101.075 374.381 100.057C375.398 99.0399 376.608 98.2288 378.009 97.6241C379.42 97.0194 380.898 96.7171 382.444 96.7171C383.989 96.7171 385.462 97.0194 386.864 97.6241C388.274 98.2288 389.489 99.0399 390.506 100.057C391.523 101.075 392.335 102.289 392.939 103.7C393.544 105.101 393.846 106.574 393.846 108.12C393.846 109.665 393.544 111.143 392.939 112.554C392.335 113.955 391.523 115.165 390.506 116.182C389.489 117.2 388.274 118.011 386.864 118.615C385.462 119.22 383.989 119.522 382.444 119.522C380.898 119.522 379.42 119.22 378.009 118.615C376.608 118.011 375.398 117.2 374.381 116.182C373.364 115.165 372.553 113.955 371.948 112.554ZM412.534 110.121L411.497 108.235V97.7537H412.534V110.121ZM414.607 113.706L413.571 111.949V97.7537H414.607V113.706ZM400.325 106.119L401.362 108.005V118.486H400.325V106.119ZM398.252 102.39L399.288 104.29V118.486H398.252V102.39ZM398.612 97.7537H399.821L411.828 118.486H410.619L398.612 97.7537ZM401.059 97.7537H402.283L414.276 118.486H413.038L401.059 97.7537ZM403.492 97.7537H404.702L415.644 116.686V97.7537H416.68V118.486H415.457L403.492 97.7537ZM397.215 99.539V118.486H396.179V97.7537H397.417L409.381 118.486H408.186L397.215 99.539Z" fill="#3F444F"/>
<rect x="16.6143" y="143.957" width="141.086" height="57.7429" rx="11.3857" stroke="#CEDBF5" stroke-width="1.22857"/>
<path d="M40.6698 163.659C42.8321 162.342 44.0705 161.684 44.385 161.684C44.6995 161.684 45.1909 162.087 45.8593 162.892C46.5473 163.698 46.8913 164.426 46.8913 165.074V174.244C46.8913 174.382 46.105 174.765 44.5324 175.394C42.9795 176.023 41.692 176.495 40.6698 176.81V179.788C40.6698 180.515 40.7484 181.036 40.9057 181.351C41.0629 181.665 41.3873 181.822 41.8787 181.822V182.736L35.8341 185.272L35.3624 184.329C35.7948 184.329 36.2076 184.073 36.6008 183.562C36.9546 183.071 37.1315 182.324 37.1315 181.321V166.047C37.1315 164.848 36.7285 164.17 35.9226 164.013V163.364L38.9007 161.684C39.2938 161.841 39.6869 162.126 40.0801 162.539C40.4732 162.951 40.6698 163.325 40.6698 163.659ZM41.8197 164.514C41.4659 164.514 41.0826 164.662 40.6698 164.956V175.424C41.1809 175.424 41.7509 175.267 42.38 174.952C43.009 174.618 43.3235 174.274 43.3235 173.92V166.696C43.3235 165.242 42.8223 164.514 41.8197 164.514ZM53.0803 169.527V179.965C53.0803 181.164 53.4833 181.842 54.2892 181.999V182.648L51.3111 184.329C50.8787 184.152 50.4757 183.867 50.1022 183.474C49.7287 183.061 49.542 182.677 49.542 182.324V171.886C49.542 170.687 49.139 170.008 48.3331 169.851V169.202L51.3111 167.522C51.7436 167.699 52.1466 167.994 52.5201 168.406C52.8935 168.799 53.0803 169.173 53.0803 169.527ZM49.0997 163.836V162.037C49.0997 161.978 49.5027 161.802 50.3086 161.507C51.1342 161.192 51.606 161.035 51.7239 161.035C51.8615 161.035 52.0483 161.202 52.2842 161.536C52.5397 161.87 52.6675 162.214 52.6675 162.568V164.721C52.6675 164.78 52.2743 164.966 51.4881 165.281C50.7018 165.576 50.2202 165.723 50.0433 165.723C49.8663 165.723 49.6599 165.556 49.4241 165.222C49.2078 164.868 49.0997 164.406 49.0997 163.836ZM54.576 169.291L57.8194 167.522C57.957 167.561 58.1143 167.62 58.2912 167.699C58.4878 167.758 58.7433 167.944 59.0578 168.259C59.392 168.573 59.5591 168.927 59.5591 169.32C59.6574 169.281 60.1193 168.976 60.9449 168.406C61.7902 167.817 62.3307 167.522 62.5666 167.522C63.1957 167.522 63.7854 167.935 64.3358 168.76C64.8862 169.586 65.1614 170.343 65.1614 171.031V172.475L62.1243 174.186L61.6231 173.773C61.6231 172.122 61.4658 171.178 61.1513 170.942C60.7975 170.687 60.2667 170.559 59.5591 170.559V179.965C59.5591 181.164 59.9621 181.842 60.768 181.999V182.648L57.7899 184.329C57.3575 184.152 56.9545 183.867 56.581 183.474C56.2075 183.061 56.0208 182.677 56.0208 182.324V172.534C56.0208 171.669 55.8635 171.021 55.549 170.588C55.2542 170.156 54.9298 169.94 54.576 169.94V169.291ZM74.606 171.414V179.758C74.606 180.486 74.724 180.997 74.9598 181.292C75.1957 181.567 75.5594 181.763 76.0508 181.881V182.53L72.8369 184.329C72.4044 184.152 72.0014 183.867 71.628 183.474C71.2545 183.061 71.0677 182.687 71.0677 182.353L67.382 184.329C67.323 184.289 67.2346 184.24 67.1166 184.181C66.9987 184.103 66.7923 183.955 66.4974 183.739C66.2222 183.503 65.9765 183.257 65.7603 183.002C65.1706 182.353 64.8757 181.616 64.8757 180.79V175.955C64.8757 175.64 65.3868 175.237 66.409 174.746C67.4312 174.254 68.4533 173.851 69.4755 173.537L71.0382 173.036C71.0382 171.915 70.7434 171.139 70.1537 170.706C69.564 170.254 68.4238 170.028 66.7333 170.028V169.143C69.7802 168.062 71.4904 167.522 71.8638 167.522C72.5125 167.522 73.1317 167.944 73.7214 168.79C74.3112 169.635 74.606 170.51 74.606 171.414ZM68.414 179.729C68.414 180.24 68.5614 180.663 68.8563 180.997C69.1708 181.311 69.5148 181.468 69.8883 181.468C70.2618 181.468 70.6549 181.321 71.0677 181.026V174.362C70.5763 174.539 70.2028 174.687 69.9473 174.805C69.7114 174.923 69.4558 175.109 69.1806 175.365C68.6696 175.837 68.414 176.652 68.414 177.812V179.729ZM81.0975 164.455V167.964H82.6012L82.3064 169.409H81.0975V179.965C81.0975 181.164 81.5004 181.842 82.3064 181.999V182.648L79.3283 184.329C78.8959 184.152 78.4929 183.867 78.1194 183.474C77.7459 183.061 77.5592 182.677 77.5592 182.324V169.438H76.3503L76.6451 168.2C77.2348 168.2 77.9425 167.807 78.7681 167.02C79.6134 166.215 80.1146 165.359 80.2719 164.455H81.0975ZM93.1786 171.414V179.758C93.1786 180.486 93.2965 180.997 93.5324 181.292C93.7683 181.567 94.1319 181.763 94.6234 181.881V182.53L91.4094 184.329C90.977 184.152 90.574 183.867 90.2005 183.474C89.827 183.061 89.6403 182.687 89.6403 182.353L85.9546 184.329C85.8956 184.289 85.8071 184.24 85.6892 184.181C85.5712 184.103 85.3648 183.955 85.07 183.739C84.7948 183.503 84.5491 183.257 84.3328 183.002C83.7431 182.353 83.4483 181.616 83.4483 180.79V175.955C83.4483 175.64 83.9594 175.237 84.9815 174.746C86.0037 174.254 87.0259 173.851 88.048 173.537L89.6108 173.036C89.6108 171.915 89.3159 171.139 88.7262 170.706C88.1365 170.254 86.9964 170.028 85.3059 170.028V169.143C88.3527 168.062 90.0629 167.522 90.4364 167.522C91.0851 167.522 91.7043 167.944 92.294 168.79C92.8837 169.635 93.1786 170.51 93.1786 171.414ZM86.9866 179.729C86.9866 180.24 87.134 180.663 87.4288 180.997C87.7434 181.311 88.0874 181.468 88.4608 181.468C88.8343 181.468 89.2275 181.321 89.6403 181.026V174.362C89.1488 174.539 88.7754 174.687 88.5198 174.805C88.2839 174.923 88.0284 175.109 87.7532 175.365C87.2421 175.837 86.9866 176.652 86.9866 177.812V179.729ZM101.747 180.024V164.337C101.747 164.2 102.867 163.718 105.108 162.892C107.349 162.047 108.637 161.625 108.971 161.625C109.305 161.625 109.806 162.028 110.474 162.834C111.162 163.639 111.506 164.367 111.506 165.015V181.586C111.506 181.744 110.425 182.245 108.263 183.09C106.12 183.916 104.803 184.329 104.312 184.329C103.84 184.329 103.29 183.906 102.661 183.061C102.051 182.215 101.747 181.203 101.747 180.024ZM106.789 181.616C107.162 181.616 107.546 181.459 107.939 181.144V166.549C107.939 165.094 107.437 164.367 106.435 164.367C106.042 164.367 105.658 164.514 105.285 164.809V179.434C105.285 180.889 105.786 181.616 106.789 181.616ZM114.445 182.324V172.328C114.445 171.679 114.308 171.119 114.032 170.647C113.757 170.175 113.413 169.94 113 169.94V169.291C113.138 169.271 114.209 168.672 116.214 167.492C116.352 167.532 116.519 167.591 116.716 167.669C116.912 167.728 117.168 167.915 117.482 168.229C117.816 168.544 117.983 168.908 117.983 169.32C118.101 169.261 118.436 169.075 118.986 168.76C120.441 167.935 121.305 167.522 121.581 167.522C122.21 167.522 122.799 167.935 123.35 168.76C123.9 169.586 124.175 170.343 124.175 171.031V179.965C124.175 181.046 124.657 181.685 125.62 181.881V182.53L122.406 184.329C121.974 184.152 121.571 183.867 121.197 183.474C120.824 183.061 120.637 182.677 120.637 182.324V173.773C120.637 172.672 120.509 171.836 120.254 171.266C120.018 170.677 119.585 170.382 118.956 170.382L117.983 170.559V179.965C117.983 181.164 118.386 181.842 119.192 181.999V182.648L116.214 184.329C115.782 184.152 115.379 183.867 115.005 183.474C114.632 183.061 114.445 182.677 114.445 182.324ZM134.339 167.522C134.437 167.522 134.683 167.679 135.076 167.994C135.469 168.288 135.862 168.711 136.255 169.261C136.648 169.792 136.845 170.313 136.845 170.824V175.778C136.845 176.132 136.324 176.564 135.282 177.075C134.24 177.586 133.228 178.009 132.245 178.343C131.282 178.658 130.761 178.815 130.683 178.815C130.683 180.328 131.341 181.262 132.658 181.616C133.307 181.773 134.083 181.852 134.987 181.852V182.707C131.764 183.788 130.044 184.329 129.827 184.329C129.238 184.329 128.638 183.916 128.029 183.09C127.419 182.245 127.115 181.262 127.115 180.142V170.234C127.115 170.097 128.235 169.615 130.476 168.79C132.717 167.944 134.005 167.522 134.339 167.522ZM133.307 172.21C133.307 171.66 133.179 171.198 132.923 170.824C132.668 170.431 132.344 170.234 131.95 170.234C131.557 170.234 131.125 170.382 130.653 170.677V177.488C132.422 176.996 133.307 175.935 133.307 174.303V172.21Z" fill="#3F444F"/>
<rect x="166.3" y="143.957" width="274.086" height="57.7429" rx="11.3857" stroke="#CEDBF5" stroke-width="1.22857"/>
<path d="M194.542 163.046H195.044C195.653 163.164 195.958 163.469 195.958 163.96C195.958 164.098 195.771 164.383 195.397 164.815V166.29C195.397 167.705 195.732 172 196.4 179.175C196.4 181.927 195.574 183.303 193.923 183.303C192.547 183.303 190.522 181.376 187.849 177.524C186.984 177.524 186.434 177.219 186.198 176.61L185.991 175.872C186.168 175.126 186.503 174.752 186.994 174.752C188.095 175.204 189.697 176.954 191.8 180C192.842 181.042 193.55 181.563 193.923 181.563H194.1C194.395 181.426 194.542 180.964 194.542 180.177V178.32L193.628 167.263L193.569 165.346C193.569 163.813 193.894 163.046 194.542 163.046ZM199.176 172.953L199.707 172.659C200.179 172.659 200.523 172.944 200.739 173.514C200.424 174.968 200.267 176.462 200.267 177.995C200.267 178.762 200.493 179.598 200.945 180.502H201.122C201.692 180.502 202.37 178.251 203.157 173.75C203.432 173.514 203.697 173.396 203.953 173.396C204.562 173.396 204.867 174.477 204.867 176.639C205.122 179.018 205.407 180.207 205.722 180.207L206.164 180.03C206.734 180.246 207.019 180.551 207.019 180.944C206.666 181.691 206.174 182.064 205.545 182.064C204.837 182.064 204.159 181.357 203.511 179.942C202.724 181.593 201.928 182.418 201.122 182.418C199.923 182.418 199.088 181.17 198.616 178.674L198.527 177.73V177.435C198.527 175.863 198.744 174.369 199.176 172.953ZM213.57 169.887C214.1 169.887 214.464 170.781 214.661 172.57C214.464 173.062 214.14 173.307 213.688 173.307C213.373 173.248 213.059 172.885 212.744 172.216L212.213 172.039C211.289 172.039 210.454 172.649 209.707 173.867V174.133C209.707 174.428 211.093 174.919 213.864 175.607C215.024 176.295 215.604 177.131 215.604 178.113C215.604 179.725 214.307 181.101 211.712 182.241L210.621 182.418C208.97 182.241 208.144 181.416 208.144 179.942V179.853C208.144 179.381 208.449 179.106 209.058 179.027C209.53 179.027 209.845 179.519 210.002 180.502L210.238 180.679H210.739C211.859 180.679 212.901 179.912 213.864 178.379V177.995C213.864 177.406 212.577 176.855 210.002 176.344C208.645 175.794 207.967 175.027 207.967 174.044C207.967 172.767 209.039 171.568 211.181 170.447C212.125 170.329 212.921 170.142 213.57 169.887ZM220.164 163.931C220.714 164.049 220.989 164.324 220.989 164.756L220.812 166.054V166.437C220.812 167.302 220.911 168.216 221.107 169.179H221.166C223.447 168.491 224.862 168.147 225.412 168.147C225.982 168.304 226.267 168.59 226.267 169.002C226.267 169.671 225.589 170.005 224.233 170.005L221.166 171.096C221.166 173.75 221.451 177.357 222.021 181.917C221.903 182.448 221.618 182.713 221.166 182.713H221.107C220.419 182.713 220.075 181.829 220.075 180.059C219.82 178.742 219.604 175.882 219.427 171.479H218.896C217.048 171.361 216.124 170.929 216.124 170.182C216.124 169.966 216.331 169.7 216.743 169.386H217.038L218.395 169.739H219.338L219.073 166.054C219.073 164.638 219.436 163.931 220.164 163.931ZM246.772 160.304H246.861C247.352 160.56 247.598 160.845 247.598 161.159L246.861 166.761C246.861 168.806 247.47 173.042 248.689 179.47L250.163 183.155C250.163 183.411 249.957 183.696 249.544 184.011H248.984C248.591 183.893 248.001 182.684 247.215 180.384C246.704 178.536 246.192 175.686 245.681 171.833H245.504C244.364 175.214 243.558 176.963 243.087 177.081L242.615 177.199C242.202 177.199 241.691 176.393 241.082 174.782H240.875C240.639 179.637 240.177 182.064 239.489 182.064H239.401C238.772 182.064 238.428 181.573 238.369 180.59C238.86 178.703 239.106 176.737 239.106 174.693L238.31 166.879V166.319C238.31 165.572 238.575 165.199 239.106 165.199C239.873 165.199 240.551 166.702 241.141 169.71C242.005 172.442 242.536 173.917 242.733 174.133C243.185 173.425 243.637 172.167 244.089 170.359C244.443 169.435 244.787 167.99 245.121 166.024L245.003 165.936L245.121 165.464V165.287C245.298 161.965 245.848 160.304 246.772 160.304ZM253.748 171.243C254.534 171.263 255.861 172.639 257.728 175.371L257.787 175.872C257.787 176.423 256.441 176.846 253.748 177.14L253.659 177.229V177.347C254.072 179.116 254.505 180 254.957 180H255.311C255.94 180 256.893 179.322 258.171 177.966H258.348C258.741 177.966 259.045 178.251 259.262 178.821C259.262 179.293 258.436 180.109 256.785 181.268C256.352 181.524 255.831 181.711 255.222 181.829C253.63 181.829 252.519 180.335 251.89 177.347C250.986 177.209 250.534 176.836 250.534 176.226C250.534 175.794 250.868 175.509 251.536 175.371V175.489L251.831 175.371V174.634C251.831 172.374 252.47 171.243 253.748 171.243ZM253.925 173.366H253.659L253.541 174.457V175.371H253.659C254.76 175.332 255.311 175.214 255.311 175.017C254.799 174.251 254.338 173.7 253.925 173.366ZM277.643 164.314L278.38 164.078C279.048 164.078 279.382 164.963 279.382 166.732L280.296 173.543L280.414 173.661L283.805 172.423C284.257 172.423 284.503 172.767 284.542 173.455C284.542 173.966 283.294 174.585 280.797 175.312L280.68 175.371V175.489C280.68 175.902 281.328 178.054 282.626 181.947V182.006C282.626 182.379 282.321 182.694 281.712 182.949C281.141 182.949 280.768 182.271 280.591 180.915C280.139 179.932 279.589 178.31 278.94 176.049H278.822C276.247 176.58 274.959 177.032 274.959 177.406C273.544 180.472 272.473 182.006 271.745 182.006C271.333 182.006 271.087 181.74 271.008 181.209C271.008 180.738 271.529 179.814 272.571 178.438L273.043 177.406H272.306L271.745 177.524C271.018 177.347 270.654 176.973 270.654 176.403C270.949 175.715 271.382 175.371 271.952 175.371L272.689 175.666C273.79 175.666 274.34 175.263 274.34 174.457C275.343 172.098 276.443 168.717 277.643 164.314ZM277.908 169.68L276.168 174.929C277.78 174.614 278.586 174.31 278.586 174.015C278.291 171.125 278.065 169.68 277.908 169.68ZM290.164 170.506C291.069 170.506 291.521 170.939 291.521 171.803C291.639 171.803 291.698 171.951 291.698 172.246H291.816L291.698 173.101L291.816 179.057L291.639 183.775C293.408 183.775 294.597 185.072 295.207 187.667C295.207 188.198 294.843 188.502 294.116 188.581C293.781 188.581 293.408 187.844 292.995 186.369C292.602 185.799 292.15 185.514 291.639 185.514H291.521C290.892 189.701 290.341 191.795 289.87 191.795C289.3 192.837 288.474 193.358 287.393 193.358C285.801 192.984 285.004 192.188 285.004 190.969V190.792C285.004 188.944 286.322 186.939 288.956 184.777L289.87 184.217L289.988 181.032V180.295H289.87C289.201 181.141 288.562 181.563 287.953 181.563H287.776C286.42 181.563 285.643 180.521 285.447 178.438V177.789C285.447 175.273 286.371 173.091 288.218 171.243C288.788 170.752 289.437 170.506 290.164 170.506ZM287.216 177.406V178.821C287.295 179.47 287.442 179.794 287.658 179.794H287.953C288.503 179.794 289.182 177.769 289.988 173.72V172.246C288.808 172.246 287.884 173.966 287.216 177.406ZM286.744 190.851C286.823 191.343 287.098 191.588 287.57 191.588C288.513 191.588 289.191 189.908 289.604 186.546H289.427C287.639 188.099 286.744 189.534 286.744 190.851ZM298.878 170.447C299.743 170.447 300.176 170.791 300.176 171.479L299.91 172.039L299.734 177.435C299.734 179.873 300.225 181.386 301.208 181.976L301.267 182.418C301.208 182.988 300.942 183.273 300.471 183.273H300.294C298.819 182.271 298.082 180.738 298.082 178.674H297.876C297.09 180.875 296.136 181.976 295.016 181.976C293.974 181.681 293.453 180.905 293.453 179.647C293.453 176.875 294.564 174.113 296.785 171.361C297.532 170.752 298.23 170.447 298.878 170.447ZM295.311 178.467L295.193 179.293V179.853H295.488C296.962 176.177 297.699 173.936 297.699 173.13H297.581C296.441 174.408 295.684 176.187 295.311 178.467ZM302.328 166.467C303.075 166.624 303.448 166.958 303.448 167.469C303.252 168.019 302.937 168.295 302.505 168.295C301.778 168.157 301.414 167.793 301.414 167.204C301.611 166.712 301.915 166.467 302.328 166.467ZM303.448 170.595C303.763 170.595 304.028 170.88 304.245 171.45L303.979 173.543V174.929C303.979 176.541 304.254 178.654 304.805 181.268C304.608 181.642 304.274 181.829 303.802 181.829C302.996 181.829 302.466 179.47 302.21 174.752V173.72C302.21 171.636 302.623 170.595 303.448 170.595ZM310.155 171.892C311.826 172.03 312.662 172.845 312.662 174.339L312.721 174.723L312.662 179.322C312.662 179.853 312.966 180.571 313.576 181.475V181.534C313.418 182.104 313.133 182.389 312.721 182.389C311.502 181.878 310.892 180.797 310.892 179.145V178.762L310.804 178.703L310.892 178.585V178.526L310.981 174.457C310.981 173.887 310.735 173.602 310.244 173.602H309.89C308.907 173.995 308.416 176.148 308.416 180.059C308.416 181.416 308.072 182.094 307.384 182.094C306.853 182.094 306.578 181.76 306.558 181.091V178.143C306.558 174.329 306.892 172.423 307.561 172.423L307.855 172.334L308.475 172.423C309.005 172.069 309.566 171.892 310.155 171.892ZM328.445 164.609C331.217 164.609 333.89 166.083 336.465 169.032C337.252 170.585 337.645 172.088 337.645 173.543C337.645 176.963 335.905 179.48 332.426 181.091C331.305 181.583 330.096 181.829 328.799 181.829H328.062C327.335 181.809 326.971 181.504 326.971 180.915H326.882C326.882 180.384 327.217 180.109 327.885 180.089H328.563V179.912H328.622C327.403 174.742 326.794 170.899 326.794 168.383H326.706L325.968 168.855C325.457 168.855 325.153 168.511 325.054 167.823C325.054 166.742 325.664 165.798 326.882 164.992C327.374 164.737 327.895 164.609 328.445 164.609ZM328.799 166.349H328.563V167.764C328.563 170.988 329.173 175.037 330.391 179.912H330.48C334.116 178.929 335.935 176.806 335.935 173.543C335.935 170.044 333.9 167.705 329.831 166.526C329.595 166.408 329.251 166.349 328.799 166.349ZM343.52 170.712C344.975 170.712 346.076 171.794 346.823 173.956L346.941 174.575C346.941 176.678 345.958 178.831 343.992 181.032C343.206 181.76 342.41 182.123 341.604 182.123C340.424 182.123 339.589 181.445 339.097 180.089C338.92 179.46 338.832 178.91 338.832 178.438V178.084C338.832 174.978 339.962 172.619 342.223 171.007C342.616 170.811 343.048 170.712 343.52 170.712ZM340.572 178.379C340.572 179.715 340.916 180.384 341.604 180.384C343.039 180.384 344.228 178.546 345.171 174.87V174.31C344.837 173.091 344.218 172.482 343.314 172.482C342.96 172.482 342.783 172.727 342.783 173.219C342.783 173.553 342.39 173.818 341.604 174.015C340.916 175.175 340.572 176.629 340.572 178.379ZM356.592 172.57C357.948 173.474 358.626 174.87 358.626 176.757C358.626 179.312 357.771 181.052 356.061 181.976L354.94 182.153C354.272 182.153 353.564 181.829 352.817 181.18H352.611C352.002 181.966 351.432 182.359 350.901 182.359C349.505 182.359 348.699 181.042 348.483 178.408V176.816C348.621 174.32 349.142 173.071 350.046 173.071C350.537 173.071 350.822 173.376 350.901 173.985C350.449 174.772 350.223 175.872 350.223 177.288V177.848C350.301 179.617 350.488 180.502 350.783 180.502C351.078 180.502 351.383 179.991 351.697 178.968L351.638 176.934C351.638 175.578 351.962 174.899 352.611 174.899C353.358 174.899 353.732 175.637 353.732 177.111H353.849L353.555 178.968C353.889 179.951 354.351 180.443 354.94 180.443H355.117C355.982 180.443 356.543 179.519 356.798 177.671V176.02C356.798 175.391 356.425 174.614 355.678 173.691L355.56 173.425C355.56 173.012 355.904 172.727 356.592 172.57ZM363.886 171.892C365.557 172.03 366.392 172.845 366.392 174.339L366.451 174.723L366.392 179.322C366.392 179.853 366.697 180.571 367.306 181.475V181.534C367.149 182.104 366.864 182.389 366.451 182.389C365.233 181.878 364.623 180.797 364.623 179.145V178.762L364.535 178.703L364.623 178.585V178.526L364.712 174.457C364.712 173.887 364.466 173.602 363.975 173.602H363.621C362.638 173.995 362.146 176.148 362.146 180.059C362.146 181.416 361.802 182.094 361.114 182.094C360.584 182.094 360.309 181.76 360.289 181.091V178.143C360.289 174.329 360.623 172.423 361.291 172.423L361.586 172.334L362.205 172.423C362.736 172.069 363.296 171.892 363.886 171.892ZM381.704 165.405C382.392 165.405 382.736 166.604 382.736 169.002L382.913 173.602H382.972L387.69 171.774C388.162 167.764 388.594 165.759 388.987 165.759L389.371 165.7C389.705 165.7 390.009 165.965 390.285 166.496C389.597 169.877 389.253 172.806 389.253 175.283V176.551C389.253 178.359 389.685 180.079 390.55 181.711C390.353 182.261 390.039 182.536 389.606 182.536C388.663 182.536 387.965 180.63 387.513 176.816V173.808H387.336C384.387 174.85 382.913 175.519 382.913 175.814C382.913 180.492 382.481 182.831 381.616 182.831H381.498C381.085 182.831 380.82 182.487 380.702 181.799C380.997 179.656 381.144 177.995 381.144 176.816L379.847 177.494L379.581 177.553C379.09 177.376 378.844 177.072 378.844 176.639C378.844 176.207 379.611 175.528 381.144 174.605V174.546C381.085 171.165 380.957 168.363 380.761 166.142C380.761 165.71 381.075 165.464 381.704 165.405ZM394.438 171.243C395.225 171.263 396.552 172.639 398.419 175.371L398.478 175.872C398.478 176.423 397.131 176.846 394.438 177.14L394.35 177.229V177.347C394.763 179.116 395.195 180 395.647 180H396.001C396.63 180 397.584 179.322 398.861 177.966H399.038C399.431 177.966 399.736 178.251 399.952 178.821C399.952 179.293 399.127 180.109 397.475 181.268C397.043 181.524 396.522 181.711 395.913 181.829C394.32 181.829 393.21 180.335 392.581 177.347C391.677 177.209 391.224 176.836 391.224 176.226C391.224 175.794 391.559 175.509 392.227 175.371V175.489L392.522 175.371V174.634C392.522 172.374 393.161 171.243 394.438 171.243ZM394.615 173.366H394.35L394.232 174.457V175.371H394.35C395.451 175.332 396.001 175.214 396.001 175.017C395.49 174.251 395.028 173.7 394.615 173.366ZM404.977 170.211C406.216 170.211 406.953 171.076 407.189 172.806V173.071C407.189 174.978 406.206 176.728 404.24 178.32C405.38 179.44 407.376 180 410.226 180C410.658 180.138 410.875 180.443 410.875 180.915C410.875 181.445 410.531 181.711 409.843 181.711C407.916 181.711 405.892 181.219 403.769 180.236V181.091C403.769 183.116 403.336 184.128 402.471 184.128C401.862 184.128 401.557 182.959 401.557 180.62V178.32L401.469 177.494L401.675 176.551L401.469 173.72V173.602C401.469 173.071 401.744 172.708 402.294 172.511C403.061 170.978 403.955 170.211 404.977 170.211ZM403.503 176.669C404.073 176.669 404.712 175.646 405.42 173.602V172.334L405.066 171.951H404.801C403.936 172.541 403.503 174.113 403.503 176.669ZM414.508 171.243C415.295 171.263 416.621 172.639 418.489 175.371L418.548 175.872C418.548 176.423 417.201 176.846 414.508 177.14L414.42 177.229V177.347C414.833 179.116 415.265 180 415.717 180H416.071C416.7 180 417.653 179.322 418.931 177.966H419.108C419.501 177.966 419.806 178.251 420.022 178.821C420.022 179.293 419.196 180.109 417.545 181.268C417.113 181.524 416.592 181.711 415.983 181.829C414.39 181.829 413.28 180.335 412.651 177.347C411.746 177.209 411.294 176.836 411.294 176.226C411.294 175.794 411.628 175.509 412.297 175.371V175.489L412.592 175.371V174.634C412.592 172.374 413.231 171.243 414.508 171.243ZM414.685 173.366H414.42L414.302 174.457V175.371H414.42C415.521 175.332 416.071 175.214 416.071 175.017C415.56 174.251 415.098 173.7 414.685 173.366Z" fill="#3F444F"/>
<rect x="16.6143" y="210.3" width="136.086" height="57.7429" rx="11.3857" stroke="#CEDBF5" stroke-width="1.22857"/>
<path d="M37.8981 249.671V229.031H41.9377V249.671H37.8981ZM41.1416 241.356V237.671H49.604V241.356H41.1416ZM41.1416 232.717V229.031H51.1372V232.717H41.1416ZM53.9004 249.671V234.929H57.7925V249.671H53.9004ZM55.8464 232.54C55.2567 232.54 54.7358 232.324 54.2837 231.891C53.8316 231.439 53.6055 230.909 53.6055 230.299C53.6055 229.69 53.8316 229.169 54.2837 228.737C54.7358 228.284 55.2567 228.058 55.8464 228.058C56.4558 228.058 56.9767 228.284 57.4092 228.737C57.8613 229.169 58.0873 229.69 58.0873 230.299C58.0873 230.909 57.8613 231.439 57.4092 231.891C56.9767 232.324 56.4558 232.54 55.8464 232.54ZM68.0157 255.952C66.8953 255.952 65.9026 255.873 65.0377 255.716C64.1728 255.559 63.4454 255.352 62.8557 255.097C62.266 254.841 61.7844 254.586 61.4109 254.33L62.9442 251.205C63.2194 251.362 63.583 251.539 64.0352 251.735C64.4873 251.952 65.0278 252.129 65.6569 252.266C66.2859 252.423 67.0132 252.502 67.8388 252.502C68.6251 252.502 69.3131 252.345 69.9028 252.03C70.5122 251.735 70.984 251.264 71.3181 250.615C71.672 249.986 71.8489 249.18 71.8489 248.197V234.929H75.741V248.079C75.741 249.73 75.4265 251.146 74.7974 252.325C74.1684 253.524 73.274 254.428 72.1142 255.038C70.9741 255.647 69.608 255.952 68.0157 255.952ZM67.2491 249.259C65.8928 249.259 64.7133 248.964 63.7108 248.374C62.728 247.784 61.9613 246.959 61.4109 245.897C60.8605 244.836 60.5853 243.578 60.5853 242.123C60.5853 240.59 60.8605 239.263 61.4109 238.142C61.9613 237.002 62.728 236.128 63.7108 235.518C64.7133 234.889 65.8928 234.575 67.2491 234.575C68.4285 234.575 69.4507 234.889 70.3156 235.518C71.1805 236.128 71.8489 237.002 72.3206 238.142C72.7924 239.283 73.0283 240.639 73.0283 242.212C73.0283 243.627 72.7924 244.865 72.3206 245.927C71.8489 246.988 71.1805 247.814 70.3156 248.404C69.4507 248.974 68.4285 249.259 67.2491 249.259ZM68.3696 245.986C69.0379 245.986 69.6178 245.819 70.1092 245.484C70.6203 245.131 71.0134 244.659 71.2886 244.069C71.5638 243.46 71.7014 242.772 71.7014 242.005C71.7014 241.219 71.554 240.531 71.2592 239.941C70.984 239.351 70.5908 238.889 70.0797 238.555C69.5883 238.221 69.0084 238.054 68.3401 238.054C67.6521 238.054 67.0427 238.221 66.512 238.555C65.9812 238.889 65.5684 239.351 65.2736 239.941C64.9787 240.531 64.8214 241.219 64.8018 242.005C64.8214 242.772 64.9787 243.46 65.2736 244.069C65.5684 244.659 65.9812 245.131 66.512 245.484C67.0624 245.819 67.6816 245.986 68.3696 245.986ZM85.1642 250.025C83.5327 250.025 82.2943 249.622 81.449 248.816C80.6234 248.01 80.2106 246.86 80.2106 245.366V230.329H84.1027V244.511C84.1027 245.14 84.2403 245.622 84.5155 245.956C84.7907 246.271 85.1937 246.428 85.7244 246.428C85.921 246.428 86.1372 246.389 86.3731 246.31C86.609 246.212 86.8547 246.074 87.1103 245.897L88.4666 248.816C87.9948 249.17 87.4641 249.455 86.8744 249.671C86.3043 249.907 85.7343 250.025 85.1642 250.025ZM77.8223 238.231V234.929H87.7884V238.231H77.8223ZM93.6957 241.917C93.6957 240.324 94.0004 239.007 94.6098 237.966C95.2388 236.924 96.0349 236.147 96.9981 235.636C97.981 235.125 99.0031 234.87 100.065 234.87V238.644C99.1604 238.644 98.3053 238.752 97.4994 238.968C96.7131 239.184 96.0742 239.538 95.5828 240.03C95.0914 240.521 94.8457 241.15 94.8457 241.917H93.6957ZM90.9535 249.671V234.929H94.8457V249.671H90.9535ZM108.79 250.025C107.335 250.025 106.047 249.701 104.927 249.052C103.807 248.384 102.922 247.47 102.273 246.31C101.644 245.15 101.33 243.814 101.33 242.3C101.33 240.786 101.654 239.45 102.303 238.29C102.971 237.13 103.875 236.226 105.015 235.577C106.175 234.909 107.502 234.575 108.996 234.575C110.274 234.575 111.453 234.919 112.534 235.607C113.635 236.275 114.52 237.268 115.188 238.585C115.856 239.882 116.191 241.465 116.191 243.332H112.239C112.259 242.035 112.122 241.003 111.827 240.236C111.551 239.45 111.158 238.889 110.647 238.555C110.136 238.201 109.537 238.025 108.849 238.025C108.082 238.025 107.433 238.182 106.903 238.496C106.372 238.811 105.969 239.292 105.694 239.941C105.438 240.57 105.31 241.396 105.31 242.418C105.31 243.302 105.487 244.04 105.841 244.629C106.195 245.219 106.667 245.671 107.256 245.986C107.846 246.281 108.495 246.428 109.202 246.428C109.969 246.428 110.588 246.261 111.06 245.927C111.551 245.593 111.925 245.16 112.18 244.629L115.837 246.045C115.424 246.87 114.883 247.588 114.215 248.197C113.566 248.787 112.79 249.239 111.886 249.553C110.981 249.868 109.949 250.025 108.79 250.025ZM103.866 243.332L103.895 240.295H114.274V243.332H103.866ZM125.116 250.025C123.662 250.025 122.374 249.701 121.254 249.052C120.133 248.384 119.249 247.47 118.6 246.31C117.971 245.15 117.656 243.814 117.656 242.3C117.656 240.786 117.981 239.45 118.629 238.29C119.298 237.13 120.202 236.226 121.342 235.577C122.502 234.909 123.829 234.575 125.323 234.575C126.6 234.575 127.78 234.919 128.861 235.607C129.962 236.275 130.846 237.268 131.515 238.585C132.183 239.882 132.517 241.465 132.517 243.332H128.566C128.586 242.035 128.448 241.003 128.153 240.236C127.878 239.45 127.485 238.889 126.974 238.555C126.463 238.201 125.863 238.025 125.175 238.025C124.409 238.025 123.76 238.182 123.229 238.496C122.698 238.811 122.295 239.292 122.02 239.941C121.765 240.57 121.637 241.396 121.637 242.418C121.637 243.302 121.814 244.04 122.168 244.629C122.521 245.219 122.993 245.671 123.583 245.986C124.173 246.281 124.821 246.428 125.529 246.428C126.296 246.428 126.915 246.261 127.387 245.927C127.878 245.593 128.252 245.16 128.507 244.629L132.163 246.045C131.75 246.87 131.21 247.588 130.542 248.197C129.893 248.787 129.116 249.239 128.212 249.553C127.308 249.868 126.276 250.025 125.116 250.025ZM120.192 243.332L120.222 240.295H130.601V243.332H120.192Z" fill="#3F444F"/>
<rect x="161.3" y="210.3" width="198.086" height="57.7429" rx="11.3857" stroke="#CEDBF5" stroke-width="1.22857"/>
<path d="M187.508 231.421V237.893H195.159V240.488H187.508V249.171H184.087V228.826H196.604L196.221 231.421H187.508ZM209.154 233.603V246.754H213.385V249.171H201.192V246.754H205.851V236.021H201.34V233.603H209.154ZM206.854 225.981C207.502 225.981 208.023 226.177 208.416 226.571C208.819 226.964 209.021 227.455 209.021 228.045C209.021 228.635 208.819 229.131 208.416 229.534C208.023 229.937 207.502 230.138 206.854 230.138C206.225 230.138 205.709 229.937 205.306 229.534C204.903 229.131 204.701 228.635 204.701 228.045C204.701 227.455 204.903 226.964 205.306 226.571C205.709 226.177 206.225 225.981 206.854 225.981ZM218.474 249.171V246.813H220.759V235.947H218.474V233.603H223.28L223.885 237.215C224.465 235.908 225.182 234.915 226.037 234.237C226.902 233.549 228.013 233.205 229.369 233.205C229.831 233.205 230.244 233.244 230.608 233.323C230.981 233.392 231.35 233.485 231.713 233.603L230.726 236.434C230.411 236.345 230.116 236.281 229.841 236.242C229.566 236.193 229.261 236.168 228.927 236.168C227.797 236.168 226.819 236.591 225.993 237.436C225.177 238.281 224.534 239.48 224.062 241.033V246.813H227.202V249.171H218.474ZM228.794 239.338V235.505L229.207 233.603H231.713L231.153 239.338H228.794ZM247.904 245.353C247.904 245.962 247.998 246.41 248.184 246.695C248.371 246.97 248.671 247.176 249.084 247.314L248.347 249.555C247.58 249.466 246.921 249.255 246.371 248.921C245.821 248.587 245.403 248.08 245.118 247.402C244.548 248.12 243.825 248.66 242.951 249.024C242.076 249.388 241.142 249.569 240.149 249.569C238.577 249.569 237.329 249.127 236.405 248.243C235.491 247.348 235.034 246.179 235.034 244.734C235.034 243.092 235.673 241.829 236.95 240.945C238.228 240.06 240.056 239.618 242.435 239.618H244.661V238.601C244.661 237.598 244.356 236.876 243.747 236.434C243.147 235.991 242.297 235.77 241.196 235.77C240.685 235.77 240.066 235.839 239.339 235.977C238.611 236.104 237.85 236.306 237.053 236.581L236.243 234.252C237.216 233.888 238.169 233.623 239.103 233.455C240.036 233.279 240.901 233.19 241.697 233.19C243.781 233.19 245.334 233.652 246.356 234.576C247.388 235.5 247.904 236.778 247.904 238.409V245.353ZM241.152 247.137C241.82 247.137 242.474 246.96 243.113 246.606C243.752 246.252 244.268 245.756 244.661 245.117V241.682H242.833C241.28 241.682 240.169 241.942 239.501 242.463C238.832 242.974 238.498 243.682 238.498 244.586C238.498 245.412 238.719 246.046 239.162 246.488C239.614 246.921 240.277 247.137 241.152 247.137ZM279.298 228.413C280.674 228.413 281.834 228.595 282.778 228.959C283.731 229.313 284.615 229.824 285.431 230.492L283.647 232.615C283.038 232.104 282.384 231.726 281.687 231.48C280.989 231.234 280.247 231.111 279.46 231.111C278.448 231.111 277.514 231.367 276.659 231.878C275.804 232.389 275.116 233.22 274.595 234.37C274.084 235.52 273.829 237.053 273.829 238.969C273.829 240.847 274.074 242.36 274.566 243.51C275.057 244.66 275.73 245.496 276.586 246.016C277.441 246.537 278.399 246.798 279.46 246.798C280.551 246.798 281.456 246.621 282.173 246.267C282.891 245.903 283.524 245.496 284.075 245.043L285.726 247.152C285.048 247.81 284.188 248.38 283.146 248.862C282.104 249.334 280.836 249.569 279.342 249.569C277.622 249.569 276.074 249.166 274.698 248.361C273.332 247.545 272.251 246.351 271.455 244.778C270.669 243.205 270.276 241.269 270.276 238.969C270.276 236.689 270.683 234.768 271.499 233.205C272.315 231.632 273.406 230.443 274.772 229.637C276.138 228.821 277.647 228.413 279.298 228.413ZM295.283 233.19C296.806 233.19 298.089 233.529 299.131 234.207C300.172 234.886 300.959 235.834 301.489 237.053C302.03 238.272 302.3 239.706 302.3 241.358C302.3 242.999 302.025 244.439 301.475 245.677C300.934 246.906 300.138 247.864 299.086 248.552C298.045 249.23 296.772 249.569 295.268 249.569C293.764 249.569 292.486 249.24 291.435 248.582C290.393 247.913 289.597 246.965 289.046 245.736C288.506 244.508 288.236 243.058 288.236 241.387C288.236 239.765 288.506 238.34 289.046 237.112C289.597 235.883 290.398 234.925 291.45 234.237C292.501 233.539 293.779 233.19 295.283 233.19ZM295.283 235.755C294.093 235.755 293.199 236.212 292.599 237.126C292 238.031 291.7 239.451 291.7 241.387C291.7 243.314 291.995 244.734 292.585 245.648C293.184 246.562 294.079 247.019 295.268 247.019C296.457 247.019 297.347 246.562 297.936 245.648C298.536 244.734 298.836 243.304 298.836 241.358C298.836 239.441 298.541 238.031 297.951 237.126C297.361 236.212 296.472 235.755 295.283 235.755ZM315.867 226.983L319.169 227.352V249.171H316.265L316.029 247.255C315.498 247.992 314.864 248.562 314.127 248.965C313.39 249.368 312.565 249.569 311.65 249.569C310.314 249.569 309.213 249.23 308.348 248.552C307.483 247.864 306.839 246.906 306.417 245.677C306.004 244.439 305.798 243.009 305.798 241.387C305.798 239.805 306.043 238.399 306.535 237.171C307.026 235.932 307.729 234.959 308.643 234.252C309.557 233.544 310.658 233.19 311.945 233.19C312.761 233.19 313.493 233.338 314.142 233.632C314.791 233.917 315.366 234.335 315.867 234.886V226.983ZM312.815 235.726C311.705 235.726 310.84 236.188 310.22 237.112C309.601 238.026 309.292 239.451 309.292 241.387C309.292 242.714 309.419 243.795 309.675 244.631C309.93 245.456 310.299 246.066 310.781 246.459C311.262 246.842 311.842 247.034 312.52 247.034C313.267 247.034 313.916 246.817 314.466 246.385C315.017 245.953 315.484 245.432 315.867 244.822V237.451C315.484 236.9 315.036 236.478 314.525 236.183C314.014 235.878 313.444 235.726 312.815 235.726ZM327.148 242.449C327.217 243.51 327.443 244.38 327.827 245.058C328.21 245.726 328.711 246.218 329.33 246.532C329.959 246.847 330.647 247.004 331.394 247.004C332.161 247.004 332.869 246.886 333.517 246.65C334.166 246.414 334.82 246.08 335.478 245.648L336.908 247.623C336.181 248.213 335.331 248.685 334.358 249.039C333.385 249.393 332.343 249.569 331.232 249.569C329.62 249.569 328.254 249.225 327.134 248.537C326.023 247.849 325.178 246.891 324.598 245.663C324.018 244.434 323.728 243.014 323.728 241.402C323.728 239.839 324.013 238.444 324.583 237.215C325.153 235.977 325.969 234.999 327.031 234.281C328.092 233.554 329.36 233.19 330.834 233.19C332.22 233.19 333.409 233.505 334.402 234.134C335.404 234.763 336.176 235.657 336.717 236.817C337.267 237.967 337.542 239.353 337.542 240.974C337.542 241.24 337.532 241.505 337.513 241.77C337.503 242.026 337.488 242.252 337.468 242.449H327.148ZM330.864 235.637C329.832 235.637 328.977 236.006 328.298 236.743C327.63 237.48 327.242 238.63 327.134 240.193H334.343C334.313 238.729 333.999 237.603 333.399 236.817C332.81 236.031 331.964 235.637 330.864 235.637Z" fill="#3F444F"/>
<rect x="16.6143" y="276.643" width="150.086" height="57.7429" rx="11.3857" stroke="#CEDBF5" stroke-width="1.22857"/>
<path d="M45.1516 315.691C44.444 313.784 43.7265 311.907 42.9992 310.059C42.2915 308.192 41.6035 306.413 40.9352 304.722C40.2668 303.032 39.6378 301.508 39.0481 300.152C38.6353 299.189 38.3109 298.471 38.0751 298C37.8392 297.528 37.6131 297.213 37.3969 297.056C37.1807 296.899 36.8956 296.801 36.5418 296.761C36.4828 296.525 36.4435 296.299 36.4239 296.083C36.4042 295.847 36.3944 295.651 36.3944 295.493C36.5909 295.513 36.8268 295.533 37.102 295.552C37.3772 295.552 37.6721 295.562 37.9866 295.582C38.3208 295.582 38.6549 295.582 38.9891 295.582C39.3233 295.582 39.6476 295.582 39.9621 295.582C40.5912 295.582 41.2005 295.572 41.7903 295.552C42.3996 295.533 42.9795 295.513 43.5299 295.493C43.5299 295.67 43.5103 295.877 43.4709 296.113C43.4513 296.329 43.4218 296.545 43.3825 296.761C42.7338 296.801 42.2522 296.909 41.9377 297.086C41.6232 297.243 41.4856 297.548 41.5249 298C41.5839 298.432 41.8099 299.1 42.2031 300.005C42.7338 301.263 43.2547 302.54 43.7658 303.838C44.2769 305.135 44.7781 306.452 45.2696 307.789C45.7807 309.106 46.2917 310.472 46.8028 311.887H46.3605C46.9306 310.61 47.4712 309.342 47.9823 308.084C48.513 306.826 49.0241 305.558 49.5155 304.28C50.0266 302.983 50.518 301.676 50.9898 300.359C51.3633 299.258 51.4714 298.412 51.3141 297.823C51.1765 297.213 50.6655 296.86 49.7809 296.761C49.7219 296.545 49.6826 296.319 49.6629 296.083C49.6433 295.847 49.6335 295.651 49.6335 295.493C49.9283 295.513 50.2035 295.533 50.4591 295.552C50.7343 295.552 51.0095 295.562 51.2847 295.582C51.5599 295.582 51.8449 295.582 52.1397 295.582C52.5919 295.582 53.0931 295.572 53.6435 295.552C54.2136 295.533 54.7148 295.513 55.1473 295.493C55.1473 295.71 55.1375 295.926 55.1178 296.142C55.0981 296.339 55.0588 296.545 54.9999 296.761C54.3905 296.899 53.9089 297.272 53.5551 297.882C53.2012 298.471 52.8376 299.258 52.4641 300.241C51.4812 302.776 50.4689 305.322 49.4271 307.877C48.4049 310.433 47.3631 312.998 46.3016 315.573C46.105 315.612 45.9183 315.642 45.7413 315.662C45.5841 315.681 45.3875 315.691 45.1516 315.691ZM60.9212 315.78C59.5845 315.78 58.4149 315.495 57.4124 314.924C56.4099 314.335 55.6334 313.519 55.083 312.477C54.5326 311.416 54.2574 310.177 54.2574 308.762C54.2574 307.425 54.5424 306.226 55.1125 305.165C55.6826 304.103 56.4688 303.268 57.4714 302.658C58.4739 302.049 59.6238 301.744 60.9212 301.744C62.3168 301.744 63.5061 302.039 64.489 302.629C65.4915 303.219 66.2581 304.044 66.7888 305.106C67.3196 306.148 67.585 307.366 67.585 308.762C67.585 310.099 67.2999 311.298 66.7299 312.359C66.1795 313.421 65.403 314.256 64.4005 314.865C63.4176 315.475 62.2579 315.78 60.9212 315.78ZM61.1571 314.364C62.3365 314.364 63.2112 313.883 63.7813 312.919C64.3514 311.937 64.6364 310.669 64.6364 309.116C64.6364 307.897 64.4496 306.845 64.0762 305.961C63.7223 305.057 63.2407 304.369 62.6314 303.897C62.022 303.405 61.3536 303.16 60.6263 303.16C59.4862 303.16 58.6311 303.622 58.0611 304.545C57.5107 305.469 57.2355 306.668 57.2355 308.143C57.2355 309.46 57.3927 310.59 57.7072 311.534C58.0414 312.457 58.5034 313.165 59.0931 313.657C59.6828 314.128 60.3708 314.364 61.1571 314.364ZM69.5446 315.603C69.5446 315.406 69.5544 315.2 69.5741 314.983C69.5937 314.748 69.6331 314.531 69.692 314.335C70.4783 314.335 71.0091 314.158 71.2843 313.804C71.5791 313.431 71.7265 312.752 71.7265 311.769V298.56C71.7265 298.088 71.6774 297.705 71.5791 297.41C71.5005 297.095 71.3039 296.86 70.9894 296.702C70.6749 296.545 70.1835 296.466 69.5151 296.466C69.5151 296.25 69.5348 296.054 69.5741 295.877C69.6134 295.7 69.6822 295.533 69.7805 295.375C70.0753 295.375 70.4881 295.326 71.0189 295.228C71.5693 295.13 72.1 295.002 72.6111 294.845C73.1222 294.687 73.4957 294.53 73.7316 294.373C73.9085 294.432 74.0559 294.55 74.1739 294.727C74.3115 294.904 74.3803 295.179 74.3803 295.552V311.769C74.3803 312.752 74.508 313.431 74.7636 313.804C75.0388 314.158 75.4909 314.335 76.1199 314.335C76.1789 314.531 76.2182 314.757 76.2379 315.013C76.2575 315.268 76.2673 315.465 76.2673 315.603C75.9332 315.583 75.5793 315.563 75.2059 315.544C74.8324 315.544 74.4491 315.534 74.0559 315.514C73.6824 315.514 73.3089 315.514 72.9355 315.514C72.562 315.514 72.1688 315.514 71.756 315.514C71.3629 315.534 70.9796 315.544 70.6061 315.544C70.2326 315.563 69.8788 315.583 69.5446 315.603ZM78.3558 315.603C78.3558 315.406 78.3656 315.2 78.3853 314.983C78.4049 314.748 78.4442 314.531 78.5032 314.335C79.2895 314.335 79.8202 314.158 80.0954 313.804C80.3903 313.431 80.5377 312.752 80.5377 311.769V298.56C80.5377 298.088 80.4886 297.705 80.3903 297.41C80.3117 297.095 80.1151 296.86 79.8006 296.702C79.4861 296.545 78.9946 296.466 78.3263 296.466C78.3263 296.25 78.3459 296.054 78.3853 295.877C78.4246 295.7 78.4934 295.533 78.5917 295.375C78.8865 295.375 79.2993 295.326 79.8301 295.228C80.3805 295.13 80.9112 295.002 81.4223 294.845C81.9334 294.687 82.3069 294.53 82.5427 294.373C82.7197 294.432 82.8671 294.55 82.985 294.727C83.1226 294.904 83.1914 295.179 83.1914 295.552V311.769C83.1914 312.752 83.3192 313.431 83.5747 313.804C83.8499 314.158 84.3021 314.335 84.9311 314.335C84.9901 314.531 85.0294 314.757 85.049 315.013C85.0687 315.268 85.0785 315.465 85.0785 315.603C84.7443 315.583 84.3905 315.563 84.017 315.544C83.6435 315.544 83.2602 315.534 82.8671 315.514C82.4936 315.514 82.1201 315.514 81.7466 315.514C81.3731 315.514 80.98 315.514 80.5672 315.514C80.1741 315.534 79.7907 315.544 79.4173 315.544C79.0438 315.563 78.6899 315.583 78.3558 315.603ZM87.1669 315.603C87.1669 315.406 87.1768 315.2 87.1964 314.983C87.2161 314.748 87.2554 314.531 87.3144 314.335C88.1006 314.335 88.6314 314.158 88.9066 313.804C89.2014 313.431 89.3489 312.752 89.3489 311.769V298.56C89.3489 298.088 89.2997 297.705 89.2014 297.41C89.1228 297.095 88.9262 296.86 88.6117 296.702C88.2972 296.545 87.8058 296.466 87.1374 296.466C87.1374 296.25 87.1571 296.054 87.1964 295.877C87.2357 295.7 87.3045 295.533 87.4028 295.375C87.6977 295.375 88.1105 295.326 88.6412 295.228C89.1916 295.13 89.7224 295.002 90.2334 294.845C90.7445 294.687 91.118 294.53 91.3539 294.373C91.5308 294.432 91.6782 294.55 91.7962 294.727C91.9338 294.904 92.0026 295.179 92.0026 295.552V311.769C92.0026 312.752 92.1304 313.431 92.3859 313.804C92.6611 314.158 93.1132 314.335 93.7422 314.335C93.8012 314.531 93.8405 314.757 93.8602 315.013C93.8798 315.268 93.8897 315.465 93.8897 315.603C93.3786 315.563 92.838 315.534 92.268 315.514C91.6979 315.514 91.1278 315.514 90.5578 315.514C90.1843 315.514 89.7912 315.514 89.3784 315.514C88.9852 315.534 88.6019 315.544 88.2284 315.544C87.8549 315.563 87.5011 315.583 87.1669 315.603ZM97.6638 315.78C97.3297 315.268 96.9267 314.698 96.4549 314.069C95.9832 313.44 95.4721 312.792 94.9217 312.123C94.3713 311.435 93.8012 310.777 93.2115 310.148C92.6414 309.499 92.091 308.919 91.5603 308.408L94.1845 305.99C94.8529 305.381 95.3345 304.889 95.6293 304.516C95.9242 304.123 96.0716 303.828 96.0716 303.631C96.0716 303.474 95.993 303.356 95.8357 303.278C95.6981 303.199 95.4917 303.16 95.2165 303.16C95.1576 302.963 95.1084 302.767 95.0691 302.57C95.0494 302.373 95.0396 302.167 95.0396 301.951C95.4721 301.97 95.8652 301.99 96.219 302.01C96.5925 302.01 96.9365 302.01 97.251 302.01C97.5656 302.01 97.8506 302.01 98.1061 302.01C98.4403 302.01 98.8531 302.01 99.3445 302.01C99.836 301.99 100.347 301.97 100.878 301.951C100.878 302.147 100.858 302.364 100.819 302.599C100.799 302.816 100.75 303.012 100.671 303.189C100.298 303.189 99.9244 303.248 99.5509 303.366C99.1971 303.484 98.8138 303.671 98.401 303.926C98.0078 304.182 97.5656 304.536 97.0741 304.988L93.8307 307.936L93.7717 306.993C94.4597 307.7 95.1674 308.467 95.8947 309.293C96.622 310.099 97.4968 311.131 98.5189 312.389C98.9121 312.86 99.2462 313.224 99.5214 313.48C99.8163 313.735 100.121 313.922 100.435 314.04C100.75 314.138 101.133 314.207 101.585 314.246C101.585 314.521 101.576 314.767 101.556 314.983C101.536 315.18 101.497 315.357 101.438 315.514C100.966 315.514 100.524 315.524 100.111 315.544C99.6984 315.563 99.2954 315.583 98.9022 315.603C98.5091 315.642 98.0963 315.701 97.6638 315.78ZM109.584 315.78C108.247 315.78 107.078 315.495 106.075 314.924C105.073 314.335 104.296 313.519 103.746 312.477C103.196 311.416 102.92 310.177 102.92 308.762C102.92 307.425 103.205 306.226 103.775 305.165C104.346 304.103 105.132 303.268 106.134 302.658C107.137 302.049 108.287 301.744 109.584 301.744C110.98 301.744 112.169 302.039 113.152 302.629C114.154 303.219 114.921 304.044 115.452 305.106C115.983 306.148 116.248 307.366 116.248 308.762C116.248 310.099 115.963 311.298 115.393 312.359C114.842 313.421 114.066 314.256 113.063 314.865C112.081 315.475 110.921 315.78 109.584 315.78ZM109.82 314.364C110.999 314.364 111.874 313.883 112.444 312.919C113.014 311.937 113.299 310.669 113.299 309.116C113.299 307.897 113.113 306.845 112.739 305.961C112.385 305.057 111.904 304.369 111.294 303.897C110.685 303.405 110.017 303.16 109.289 303.16C108.149 303.16 107.294 303.622 106.724 304.545C106.174 305.469 105.898 306.668 105.898 308.143C105.898 309.46 106.056 310.59 106.37 311.534C106.704 312.457 107.166 313.165 107.756 313.657C108.346 314.128 109.034 314.364 109.82 314.364ZM123.361 311.18C123.361 312.025 123.449 312.674 123.626 313.126C123.803 313.558 124.088 313.863 124.481 314.04C124.874 314.197 125.375 314.295 125.985 314.335C126.044 314.492 126.083 314.679 126.103 314.895C126.122 315.092 126.132 315.327 126.132 315.603C125.837 315.583 125.484 315.563 125.071 315.544C124.678 315.544 124.255 315.534 123.803 315.514C123.351 315.514 122.889 315.514 122.417 315.514C121.729 315.514 121.002 315.514 120.235 315.514C119.488 315.534 118.918 315.563 118.525 315.603C118.525 315.327 118.535 315.092 118.554 314.895C118.574 314.679 118.613 314.492 118.672 314.335C119.203 314.295 119.616 314.207 119.911 314.069C120.206 313.912 120.412 313.657 120.53 313.303C120.648 312.929 120.707 312.418 120.707 311.769V308.821H123.361V311.18ZM123.361 306.875V309.204H120.707V305.931L123.361 303.042C123.361 303.71 123.302 304.319 123.184 304.87C123.066 305.401 122.958 305.931 122.859 306.462L123.361 306.875ZM122.712 306.639C122.928 306.089 123.095 305.636 123.213 305.283C123.331 304.929 123.459 304.634 123.597 304.398C124.029 303.71 124.54 303.14 125.13 302.688C125.719 302.236 126.398 302.01 127.164 302.01C127.911 302.01 128.589 302.246 129.199 302.717C129.159 303.032 129.12 303.396 129.081 303.808C129.042 304.221 129.012 304.634 128.992 305.047C128.992 305.46 128.992 305.843 128.992 306.197C128.815 306.256 128.57 306.315 128.255 306.374C127.96 306.433 127.646 306.462 127.312 306.462C127.272 305.519 127.115 304.899 126.84 304.604C126.584 304.31 126.26 304.162 125.867 304.162C125.533 304.162 125.169 304.359 124.776 304.752C124.383 305.125 124.049 305.627 123.773 306.256C123.498 306.885 123.361 307.583 123.361 308.349L122.712 306.639ZM120.707 309.204V305.931C120.707 305.46 120.658 305.076 120.559 304.781C120.461 304.487 120.255 304.26 119.94 304.103C119.626 303.946 119.144 303.857 118.495 303.838C118.495 303.622 118.515 303.425 118.554 303.248C118.594 303.071 118.663 302.904 118.761 302.747C119.37 302.708 120.068 302.59 120.854 302.393C121.641 302.196 122.26 301.98 122.712 301.744C122.889 301.803 123.036 301.931 123.154 302.128C123.292 302.305 123.361 302.609 123.361 303.042L120.707 309.204ZM133.06 309.204V305.931C133.06 305.46 133.011 305.076 132.912 304.781C132.814 304.487 132.608 304.26 132.293 304.103C131.979 303.946 131.497 303.857 130.848 303.838C130.848 303.622 130.868 303.425 130.907 303.248C130.947 303.071 131.015 302.904 131.114 302.747C131.723 302.708 132.421 302.59 133.207 302.393C133.994 302.196 134.613 301.98 135.065 301.744C135.242 301.803 135.389 301.931 135.507 302.128C135.645 302.305 135.714 302.609 135.714 303.042L133.06 309.204ZM144.441 311.769C144.441 312.792 144.579 313.48 144.854 313.833C145.149 314.168 145.591 314.335 146.181 314.335C146.24 314.512 146.279 314.698 146.299 314.895C146.319 315.092 146.328 315.327 146.328 315.603C145.896 315.563 145.405 315.534 144.854 315.514C144.304 315.514 143.724 315.514 143.114 315.514C142.721 315.514 142.309 315.514 141.876 315.514C141.444 315.534 141.031 315.544 140.638 315.544C140.264 315.563 139.92 315.583 139.606 315.603C139.606 315.327 139.615 315.092 139.635 314.895C139.655 314.679 139.694 314.492 139.753 314.335C140.461 314.335 140.972 314.158 141.286 313.804C141.621 313.431 141.788 312.752 141.788 311.769V307.288C141.788 305.892 141.532 304.948 141.021 304.457C140.51 303.946 139.851 303.69 139.045 303.69C138.534 303.69 138.023 303.857 137.512 304.192C137.001 304.506 136.569 305.027 136.215 305.754C135.881 306.462 135.714 307.415 135.714 308.615V311.769C135.714 312.752 135.861 313.431 136.156 313.804C136.451 314.158 136.981 314.335 137.748 314.335C137.807 314.512 137.846 314.698 137.866 314.895C137.886 315.092 137.895 315.327 137.895 315.603C137.62 315.583 137.286 315.563 136.893 315.544C136.5 315.544 136.087 315.534 135.655 315.514C135.222 315.514 134.799 315.514 134.387 315.514C133.994 315.514 133.581 315.514 133.148 315.514C132.716 315.534 132.303 315.544 131.91 315.544C131.517 315.563 131.173 315.583 130.878 315.603C130.878 315.327 130.888 315.092 130.907 314.895C130.927 314.679 130.966 314.492 131.025 314.335C131.792 314.335 132.323 314.158 132.618 313.804C132.912 313.431 133.06 312.752 133.06 311.769V305.931L135.714 303.042C135.714 303.278 135.704 303.543 135.684 303.838C135.664 304.133 135.605 304.447 135.507 304.781C135.566 304.683 135.625 304.575 135.684 304.457C135.743 304.319 135.831 304.172 135.949 304.015C136.284 303.563 136.814 303.101 137.542 302.629C138.289 302.137 139.183 301.892 140.225 301.892C140.972 301.892 141.66 302.049 142.289 302.364C142.938 302.658 143.458 303.16 143.852 303.867C144.245 304.555 144.441 305.499 144.441 306.698V311.769Z" fill="#3F444F"/>
</g>
<defs>
<clipPath id="clip0_1187_10879">
<rect width="320" height="320" rx="24" fill="white"/>
</clipPath>
</defs>
</svg>
