<svg width="42" height="42" viewBox="0 0 42 42" fill="none" xmlns="http://www.w3.org/2000/svg">
<rect x="-0.000213623" width="42" height="42" fill="#B9C8E5"/>
<path d="M12.5 17L12.5 15L12 15C11.4477 15 11 15.4477 11 16C11 16.5523 11.4477 17 12 17L12.5 17Z" fill="#0A2456"/>
<path d="M12.5 27L12.5 25L12 25C11.4477 25 11 25.4477 11 26C11 26.5523 11.4477 27 12 27L12.5 27Z" fill="#0A2456"/>
<path d="M12.5 22L12.5 20L12 20C11.4477 20 11 20.4477 11 21C11 21.5523 11.4477 22 12 22L12.5 22Z" fill="#0A2456"/>
<path fill-rule="evenodd" clip-rule="evenodd" d="M14.5 25L14.5 22L14.5 28C14.5 28.5523 14.9477 29 15.5 29L28 29C28.5523 29 29 28.5523 29 28L29 14C29 13.4477 28.5523 13 28 13L15.5 13C14.9477 13 14.5 13.4477 14.5 14L14.5 15L12.5 15L12.5 14C12.5 12.3431 13.8431 11 15.5 11L28 11C29.6569 11 31 12.3431 31 14L31 28C31 29.6569 29.6569 31 28 31L15.5 31C13.8431 31 12.5 29.6569 12.5 28L12.5 27L14.5 27L14.5 25ZM14.5 20L12.5 20L12.5 22L12.5 17L14.5 17L14.5 20Z" fill="#0A2456"/>
<path d="M12.5 22L12.5 25L14.5 25L14.5 22L12.5 22Z" fill="#0A2456"/>
<path fill-rule="evenodd" clip-rule="evenodd" d="M14.5 28C14.5 28.5523 14.9477 29 15.5 29L28 29C28.5523 29 29 28.5523 29 28L29 14C29 13.4477 28.5523 13 28 13L15.5 13C14.9477 13 14.5 13.4477 14.5 14L14.5 15L15 15C15.5523 15 16 15.4477 16 16C16 16.5523 15.5523 17 15 17L14.5 17L14.5 20L15 20C15.5523 20 16 20.4477 16 21C16 21.5523 15.5523 22 15 22L14.5 22L14.5 25L15 25C15.5523 25 16 25.4477 16 26C16 26.5523 15.5523 27 15 27L14.5 27L14.5 28ZM26 16.525C26 16.235 25.765 16 25.475 16L18.025 16C17.735 16 17.5 16.235 17.5 16.525L17.5 20.475C17.5 20.7649 17.735 21 18.025 21L25.475 21C25.7649 21 26 20.7649 26 20.475L26 16.525Z" fill="#0A2456"/>
</svg>
