<svg width="43" height="42" viewBox="0 0 43 42" fill="none" xmlns="http://www.w3.org/2000/svg">
<rect x="0.5" width="42" height="42" fill="#B9C8E5"/>
<path d="M13.8636 20.0455V28.6364C13.8636 28.9545 14.0545 29.5909 14.8181 29.5909H28.1817C28.4999 29.5909 29.1363 29.4 29.1363 28.6364V20.0455H13.8636Z" fill="#0A2456"/>
<path d="M18.6363 14.3182V15.2727C18.6363 15.7999 18.2089 16.2273 17.6817 16.2273C17.1546 16.2273 16.7272 15.7999 16.7272 15.2727V14.3182H14.8181C14.0545 14.3182 13.8636 14.9545 13.8636 15.2727V18.1364H29.1363V15.2727C29.1363 14.5091 28.4999 14.3182 28.1817 14.3182H26.2727V15.2727C26.2727 15.7999 25.8453 16.2273 25.3181 16.2273C24.7909 16.2273 24.3636 15.7999 24.3636 15.2727L24.3636 14.3182H18.6363Z" fill="#0A2456"/>
<path fill-rule="evenodd" clip-rule="evenodd" d="M17.6817 10.5C18.2089 10.5 18.6363 10.9274 18.6363 11.4545V12.4091H16.7272V11.4545C16.7272 10.9274 17.1546 10.5 17.6817 10.5ZM26.2727 14.3182H28.1817C28.4999 14.3182 29.1363 14.5091 29.1363 15.2727V18.1364V20.0455V28.6364C29.1363 29.4 28.4999 29.5909 28.1817 29.5909H14.8181C14.0545 29.5909 13.8636 28.9545 13.8636 28.6364V20.0455V18.1364V15.2727C13.8636 14.9545 14.0545 14.3182 14.8181 14.3182H16.7272V12.4091H14.8181C13.2366 12.4091 11.9545 13.6912 11.9545 15.2727V28.6364C11.9545 30.2179 13.2366 31.5 14.8181 31.5H28.1817C29.7633 31.5 31.0454 30.2179 31.0454 28.6364V15.2727C31.0454 13.6912 29.7633 12.4091 28.1817 12.4091H26.2727V11.4545C26.2727 10.9274 25.8453 10.5 25.3181 10.5C24.7909 10.5 24.3636 10.9274 24.3636 11.4545V12.4091H18.6363V14.3182H24.3636L24.3636 12.4091H26.2727V14.3182Z" fill="#0A2456"/>
</svg>
