<svg width="42" height="42" viewBox="0 0 42 42" fill="none" xmlns="http://www.w3.org/2000/svg">
<path fill-rule="evenodd" clip-rule="evenodd" d="M39.0316 12.9608L38.7305 15.4048C38.5944 16.5096 38.7456 17.6244 39.1599 18.6408C39.197 18.7319 39.2363 18.8222 39.2776 18.9116C39.396 19.1678 39.5316 19.4168 39.6839 19.6569L40.997 21.7259C42.9071 24.7356 42.0056 28.7562 39.0017 30.6243L36.9368 31.9084C35.6801 32.6899 34.7342 33.8973 34.2653 35.3184L33.4949 37.6533C32.3741 41.05 28.7239 42.8393 25.4162 41.6135L23.1424 40.7708C21.7586 40.2579 20.2414 40.2579 18.8576 40.7708L16.5838 41.6135C13.2761 42.8393 9.62594 41.05 8.50515 37.6533L7.7347 35.3184C7.2658 33.8973 6.3199 32.6899 5.0632 31.9084L2.99828 30.6243C-0.00560057 28.7562 -0.907119 24.7356 1.00301 21.7259L2.31606 19.6569C3.11518 18.3977 3.45277 16.8922 3.26951 15.4048L2.96839 12.9608C2.53034 9.40546 5.05633 6.18124 8.55901 5.82482L10.9668 5.57981L10.9859 5.57784C11.6211 5.5112 12.2376 5.34666 12.8158 5.09382C13.5648 4.76626 14.2495 4.2905 14.8272 3.68743L16.5167 1.92399C18.9743 -0.641328 23.0257 -0.64133 25.4833 1.92399L27.1728 3.68743C28.2009 4.76066 29.5678 5.4307 31.0332 5.57981L33.441 5.82482C36.9437 6.18124 39.4697 9.40545 39.0316 12.9608ZM14.3702 25.2321L18.0643 17.8522L18.216 17.5492C17.9979 16.3907 18.1425 15.1483 18.7104 14.0138C20.0721 11.2935 23.3722 10.181 26.0864 11.5887C28.7818 12.9867 29.8244 16.3147 28.4715 19.0174C27.9063 20.1466 27.0048 21.0023 25.9474 21.5123L22.0423 29.3137L35.4733 19.145C35.0642 17.8 34.9369 16.3737 35.1112 14.9588L35.4124 12.5148C35.608 10.9272 34.48 9.596 33.0718 9.45271L30.664 9.2077C28.3281 8.97 26.1612 7.90282 24.5395 6.21013L22.8501 4.44668C21.8281 3.37994 20.1719 3.37994 19.1499 4.44669L17.4605 6.21013C16.6318 7.07507 15.6607 7.77687 14.5968 8.28814L14.4837 16.8117L14.3702 25.2321ZM35.011 28.8118L37.0759 27.5276C38.3358 26.7441 38.7565 25.0009 37.9181 23.6799L37.1413 22.456L21.8252 34.052C20.5779 34.9966 19.0779 34.7307 18.1555 33.9379C17.2386 33.1499 16.7543 31.7312 17.4402 30.3609L22.7805 19.6923C23.1557 18.9427 23.7786 18.493 24.3233 18.2464C24.6886 18.0811 25.0075 17.791 25.2106 17.3851C25.6869 16.4336 25.3021 15.2899 24.4075 14.8259C23.5317 14.3717 22.4388 14.7122 21.9713 15.6461C21.7677 16.0528 21.7202 16.4969 21.8074 16.9136C21.9284 17.4917 21.9395 18.2573 21.5661 19.0033L21.3253 19.4844L16.2376 29.6484C14.7982 32.524 10.6411 31.3272 10.6822 28.2785L10.8374 16.7633L10.9372 9.24828L8.92817 9.45271C7.52002 9.59599 6.39203 10.9272 6.58764 12.5149L6.88876 14.9588C7.17477 17.2802 6.64917 19.6347 5.39497 21.6109L4.08192 23.6799C3.24354 25.0009 3.66423 26.7441 4.92406 27.5276L6.98898 28.8118C8.97995 30.0499 10.4644 31.9533 11.1977 34.1757L11.9681 36.5106C12.4575 37.9936 13.9929 38.6847 15.3166 38.1941L17.5904 37.3514C19.7919 36.5356 22.2081 36.5356 24.4096 37.3514L26.6834 38.1941C28.0071 38.6847 29.5425 37.9936 30.0319 36.5106L30.8023 34.1757C31.5356 31.9533 33.02 30.0499 35.011 28.8118Z" fill="#0A2456"/>
</svg>
